<?xml version="1.0" encoding="utf-8"?>
<!-- Generator: Adobe Illustrator 27.5.0, SVG Export Plug-In . SVG Version: 6.00 Build 0)  -->
<svg version="1.1" id="Layer_1" xmlns="http://www.w3.org/2000/svg" xmlns:xlink="http://www.w3.org/1999/xlink" x="0px" y="0px"
	 viewBox="0 0 201.991 326.111" style="enable-background:new 0 0 201.991 326.111;" xml:space="preserve">
<g>
	<g>
		<path style="fill:#FFFFFF;" d="M101.492,303.704c-0.002,0.017-0.004,0.032-0.006,0.048c-0.188,1.635-0.323,3.284-0.403,4.935
			c-0.054-1.085-0.13-2.178-0.23-3.261c-0.001-0.021-0.003-0.042-0.005-0.063c-0.09-0.954-0.197-1.907-0.322-2.856
			c0.17-0.002,0.34-0.004,0.51-0.007c0.203,0.003,0.403,0.006,0.604,0.008C101.588,302.908,101.538,303.307,101.492,303.704z
			 M195.566,218.206c-0.227-0.629-0.461-1.253-0.732-1.93c-0.004-0.009-0.034-0.08-0.038-0.09
			c-3.002-7.418-7.637-14.361-13.776-20.637c-0.202-0.207-0.418-0.392-0.646-0.555c-6.898-6.867-14.105-11.439-19.035-14.102
			c-11.381-6.148-15.246-13.494-17.548-22.63c-0.38-1.513-0.905-3.004-1.563-4.438c-0.025-0.059-0.05-0.116-0.077-0.174
			c-0.219-0.472-0.456-0.917-0.692-1.355c-0.201-0.371-0.41-0.727-0.629-1.087l-0.094-0.152c-0.15-0.25-0.305-0.5-0.457-0.729
			c-0.157-0.236-0.318-0.461-0.481-0.685l-0.115-0.159c-0.16-0.223-0.321-0.444-0.492-0.666c-0.195-0.251-0.391-0.488-0.573-0.706
			c-0.182-0.218-0.362-0.43-0.536-0.625c-0.2-0.227-0.399-0.443-0.604-0.657c-0.179-0.188-0.357-0.37-0.551-0.562
			c-0.167-0.166-0.335-0.33-0.509-0.496V91.093c0-0.394-0.048-0.775-0.138-1.141c-2.271-20.652-24.736-71.271-27.242-75.22
			c-0.259-0.406-0.539-0.795-0.851-1.179l-0.158-0.193c-0.291-0.345-0.599-0.668-0.881-0.929c-0.082-0.078-0.162-0.15-0.237-0.214
			c-0.34-0.301-0.665-0.554-0.948-0.744c-0.067-0.047-0.162-0.107-0.243-0.159c-0.294-0.187-0.58-0.347-0.811-0.459
			c-0.092-0.048-0.184-0.094-0.328-0.161c-0.256-0.114-0.508-0.217-0.75-0.3c-0.109-0.038-0.219-0.071-0.33-0.101
			c-0.843-0.255-1.742-0.375-2.541-0.358c-0.064-0.002-0.131-0.003-0.2-0.003c-1.458,0-5.147,0.469-7.901,4.806
			c-2.501,3.938-24.951,54.515-27.235,75.193c-0.092,0.372-0.141,0.76-0.141,1.161v62.266c-0.047,0.096-0.094,0.193-0.14,0.291
			c-0.028,0.062-0.056,0.124-0.082,0.187c-0.653,1.427-1.178,2.914-1.559,4.427c-2.301,9.137-6.165,16.483-17.548,22.631
			c-4.929,2.663-12.136,7.234-19.031,14.1c-0.229,0.163-0.445,0.349-0.648,0.557c-6.156,6.293-10.798,13.255-13.761,20.602
			c-0.018,0.043-0.053,0.126-0.07,0.169c-0.253,0.632-0.494,1.273-0.726,1.912c-0.132,0.367-0.262,0.736-0.399,1.139l-0.048,0.148
			c-2.35,6.983-3.296,14.364-2.815,21.945c-0.034,0.909,0.122,2.163,0.922,3.452c0.674,1.088,2.022,2.51,4.539,3.089
			c0.627,0.155,1.27,0.255,1.963,0.303c0.245,0.017,0.993,0.068,7.658,0.385c7.885,0.395,20.364,0.998,30.874,1.503l8.078,0.388
			l-14.779,37.558c-0.91,2.311,0.072,4.936,2.276,6.081c0.035,0.018,0.157,0.078,0.192,0.096l0.224,0.107
			c0.002,0,0.003,0.001,0.003,0.001c0.024,0.013,0.049,0.022,0.072,0.034l0.352,0.161c0.02,0.009,0.039,0.017,0.055,0.024
			c0.467,0.211,1.161,0.509,2.085,0.87c0.006,0.002,0.144,0.056,0.149,0.058c0.249,0.097,0.516,0.197,0.79,0.299l0.212,0.078
			c0.297,0.109,0.611,0.222,0.977,0.35c0.009,0.004,0.086,0.03,0.097,0.034c2.562,0.893,5.35,1.705,8.327,2.426
			c-0.049,0.265-0.096,0.528-0.141,0.791c-0.005,0.023-0.022,0.128-0.027,0.152c-0.231,1.353-0.424,2.7-0.575,4.001
			c-0.001,0.006-0.002,0.013-0.002,0.018c-0.062,0.529-0.115,1.068-0.167,1.624c-0.012,0.105-0.022,0.211-0.022,0.23
			c-0.258,2.856-0.354,5.742-0.285,8.58c0.047,1.913,1.242,3.631,3.008,4.369c0,0,0.527,0.221,1.49,0.534
			c0.018,0.006,0.035,0.012,0.052,0.017c2.465,0.801,7.593,2.142,14.235,2.142l0.539-0.003l0.537,0.003
			c3.079,0,6.16-0.29,9.16-0.862c0.005-0.001,0.15-0.029,0.154-0.03c1.153-0.223,2.265-0.482,3.303-0.767
			c0.004-0.001,0.008-0.003,0.012-0.004c0.006-0.002,0.014-0.004,0.021-0.006c0.549-0.151,1.024-0.293,1.484-0.44
			c0.01-0.002,0.021-0.006,0.035-0.011c0.384-0.123,0.695-0.23,0.932-0.314c0.028-0.011,0.094-0.035,0.122-0.046l0.261-0.097
			c0.003-0.001,0.112-0.042,0.114-0.043c0.03-0.012,0.113-0.045,0.143-0.057c1.58-0.631,2.697-2.034,2.981-3.679
			c0.279,1.624,1.372,3.014,2.924,3.656c0.267,0.11,6.628,2.699,15.795,2.699l0.537-0.003l0.537,0.003
			c3.073,0,6.151-0.289,9.194-0.869l0.143-0.027c1.091-0.212,2.146-0.456,3.177-0.736c0.039-0.009,0.079-0.02,0.118-0.03
			c0.552-0.152,1.03-0.296,1.374-0.406c0.027-0.008,0.119-0.037,0.146-0.045c0.401-0.13,0.727-0.242,0.981-0.334l0.348-0.129
			c0.003-0.001,0.112-0.042,0.115-0.043c0.029-0.012,0.112-0.045,0.142-0.057c1.803-0.72,3.003-2.445,3.05-4.386
			c0.037-1.501,0.026-2.996-0.031-4.566c-0.001-0.025-0.002-0.05-0.003-0.075c-0.053-1.389-0.144-2.78-0.273-4.164
			c-0.17-1.821-0.41-3.654-0.708-5.43c-0.023-0.309-0.077-0.609-0.156-0.898c-0.019-0.096-0.035-0.192-0.054-0.288
			c1.25-0.305,2.466-0.624,3.615-0.949l0.212-0.061c0.529-0.15,1.035-0.302,1.495-0.441l0.234-0.071
			c1.067-0.329,2.02-0.646,2.829-0.93l1.296-0.469c0.033-0.011,0.065-0.023,0.099-0.036l0.99-0.382
			c0.036-0.015,0.073-0.03,0.109-0.045c0.04-0.017,0.076-0.03,0.099-0.039l0.711-0.294c0.035-0.013,0.069-0.027,0.105-0.042
			l0.487-0.211c0.025-0.011,0.053-0.023,0.081-0.035c0.009-0.005,0.018-0.009,0.026-0.013l0.335-0.149
			c0.007-0.004,0.121-0.056,0.128-0.06c0.03-0.014,0.079-0.037,0.108-0.052c0.036-0.016,0.164-0.076,0.199-0.094
			c0.016-0.008,0.034-0.016,0.052-0.024c0.05-0.023,0.098-0.047,0.146-0.072c0.007-0.004,0.014-0.007,0.02-0.01
			c2.247-1.124,3.263-3.776,2.344-6.114l-14.681-37.303c3.442-0.164,8.178-0.391,13.4-0.643c10.515-0.506,22.997-1.109,30.871-1.503
			c6.672-0.316,7.419-0.368,7.663-0.385c0.696-0.048,1.339-0.147,1.876-0.282c2.599-0.597,3.949-2.02,4.625-3.107
			c0.802-1.289,0.958-2.544,0.924-3.454C199.352,233.392,198.249,225.564,195.566,218.206z"/>
		<path style="fill:#F1F1F1;" d="M100.991,303.246c-0.002,0.016-0.003,0.032-0.005,0.047c-0.196,1.635-0.323,3.284-0.405,4.935
			c-0.052-1.085-0.128-2.178-0.229-3.261c-0.001-0.021-0.003-0.041-0.006-0.063c-0.109-0.952-0.196-1.906-0.321-2.855
			c0.17-0.002,0.338-0.012,0.509-0.007c0.204,0.006,0.403,0.006,0.604,0.008C101.087,302.449,101.038,302.848,100.991,303.246z
			 M195.066,217.748c-0.228-0.629-0.462-1.254-0.733-1.93c-0.003-0.009-0.034-0.081-0.036-0.09
			c-2.653-7.55-7.638-14.362-13.776-20.638c-0.203-0.206-0.419-0.391-0.646-0.554c-6.898-6.868-14.105-11.439-19.035-14.102
			c-11.381-6.148-15.246-13.493-17.548-22.629c-0.381-1.513-0.905-3.005-1.564-4.438c-0.023-0.06-0.05-0.117-0.077-0.175
			c-0.221-0.47-0.455-0.917-0.691-1.354c-0.201-0.371-0.41-0.727-0.629-1.088l-0.094-0.152c-0.152-0.25-0.306-0.499-0.457-0.729
			c-0.157-0.235-0.319-0.46-0.481-0.684l-0.115-0.159c-0.161-0.224-0.321-0.445-0.493-0.667c-0.194-0.25-0.391-0.486-0.573-0.706
			c-0.182-0.217-0.362-0.43-0.535-0.625c-0.2-0.227-0.401-0.443-0.604-0.657c-0.18-0.188-0.358-0.368-0.552-0.561
			c-0.167-0.166-0.334-0.331-0.51-0.496V90.634c0-0.393-0.046-0.774-0.136-1.141c-2.271-20.652-24.737-71.271-27.243-75.219
			c-0.258-0.406-0.538-0.795-0.851-1.179l-0.158-0.194c-0.29-0.344-0.601-0.667-0.881-0.928c-0.082-0.078-0.162-0.15-0.237-0.215
			c-0.343-0.295-0.667-0.549-0.948-0.743c-0.067-0.047-0.161-0.107-0.243-0.159c-0.294-0.185-0.581-0.344-0.811-0.46
			c-0.092-0.046-0.182-0.095-0.327-0.16c-0.256-0.117-0.509-0.218-0.751-0.301c-0.109-0.038-0.22-0.069-0.33-0.101
			c-0.848-0.239-1.741-0.375-2.542-0.357c-0.064-0.002-0.13-0.003-0.199-0.003c-1.458,0-5.147,0.469-7.9,4.805
			c-2.501,3.939-24.952,54.516-27.236,75.193c-0.093,0.372-0.141,0.761-0.141,1.161v62.266c-0.047,0.096-0.094,0.193-0.14,0.291
			c-0.028,0.062-0.054,0.124-0.082,0.187c-0.643,1.432-1.178,2.915-1.558,4.427c-2.301,9.138-6.165,16.483-17.548,22.631
			c-4.929,2.664-12.137,7.234-19.032,14.101c-0.229,0.163-0.445,0.349-0.647,0.556c-6.157,6.294-10.798,13.255-13.762,20.603
			c-0.017,0.042-0.053,0.126-0.069,0.168c-0.247,0.635-0.494,1.273-0.726,1.913c-0.133,0.366-0.262,0.735-0.399,1.139l-0.049,0.148
			c-2.349,6.983-3.295,14.363-2.814,21.944c-0.034,0.909,0.122,2.164,0.92,3.453c0.675,1.087,2.029,2.488,4.541,3.089
			c0.627,0.149,1.269,0.255,1.962,0.302c0.246,0.018,0.994,0.068,7.658,0.385c7.885,0.395,20.365,0.998,30.874,1.503l8.079,0.388
			l-14.781,37.559c-0.908,2.311,0.077,4.928,2.278,6.08c0.034,0.018,0.156,0.079,0.192,0.096l0.225,0.108
			c0.002,0,0.003,0.001,0.003,0.001c0.023,0.012,0.049,0.022,0.072,0.034l0.352,0.161c0.019,0.008,0.037,0.017,0.055,0.024
			c0.468,0.209,1.16,0.509,2.085,0.869c0.005,0.002,0.144,0.056,0.148,0.058c0.249,0.097,0.517,0.197,0.79,0.3l0.211,0.077
			c0.299,0.11,0.612,0.222,0.978,0.35c0.01,0.004,0.086,0.03,0.096,0.034c2.557,0.91,5.352,1.705,8.329,2.426
			c-0.049,0.265-0.098,0.529-0.142,0.791c-0.004,0.024-0.022,0.128-0.027,0.153c-0.27,1.345-0.424,2.699-0.575,4.001
			c-0.001,0.006-0.002,0.012-0.002,0.018c-0.062,0.53-0.11,1.068-0.166,1.625c-0.011,0.105-0.022,0.21-0.022,0.229
			c-0.26,2.855-0.354,5.742-0.286,8.58c0.048,1.912,1.243,3.631,3.008,4.368c0,0,0.525,0.232,1.49,0.535
			c0.019,0.005,0.036,0.011,0.052,0.017c2.455,0.832,7.594,2.142,14.234,2.142l0.54-0.003l0.538,0.003
			c3.078,0,6.178-0.205,9.16-0.862c0.004,0,0.148-0.029,0.153-0.03c1.152-0.226,2.256-0.518,3.303-0.766
			c0.005-0.001,0.008-0.003,0.011-0.004c0.007-0.002,0.016-0.004,0.021-0.006c0.545-0.166,1.024-0.298,1.485-0.44
			c0.009-0.003,0.021-0.007,0.034-0.012c0.382-0.13,0.696-0.227,0.933-0.314c0.027-0.01,0.094-0.035,0.122-0.045l0.26-0.097
			c0.004-0.001,0.111-0.043,0.115-0.044c0.028-0.011,0.112-0.044,0.142-0.056c1.584-0.622,2.697-2.035,2.98-3.68
			c0.28,1.624,1.374,3.015,2.926,3.657c0.265,0.109,6.628,2.698,15.795,2.698l0.536-0.003l0.538,0.003
			c3.073,0,6.15-0.289,9.192-0.868l0.145-0.027c1.091-0.213,2.143-0.471,3.177-0.736c0.039-0.011,0.078-0.02,0.117-0.03
			c0.553-0.15,1.031-0.297,1.375-0.406c0.027-0.008,0.118-0.037,0.145-0.046c0.403-0.128,0.728-0.241,0.982-0.333l0.349-0.129
			c0.003-0.001,0.111-0.043,0.115-0.044c0.028-0.011,0.111-0.044,0.141-0.056c1.807-0.711,3.003-2.446,3.051-4.386
			c0.035-1.502,0.025-2.996-0.031-4.567c-0.001-0.025-0.002-0.05-0.003-0.074c-0.053-1.389-0.144-2.78-0.274-4.164
			c-0.17-1.822-0.41-3.655-0.708-5.43c-0.025-0.31-0.077-0.609-0.156-0.899c-0.018-0.096-0.035-0.192-0.054-0.288
			c1.25-0.304,2.467-0.623,3.615-0.949l0.213-0.062c0.527-0.15,1.035-0.301,1.494-0.441l0.235-0.07
			c1.067-0.329,2.018-0.646,2.828-0.93l1.296-0.469c0.034-0.012,0.066-0.023,0.1-0.036l0.99-0.383
			c0.035-0.015,0.073-0.029,0.108-0.045c0.04-0.016,0.076-0.03,0.1-0.038l0.71-0.294c0.036-0.014,0.07-0.027,0.104-0.043
			l0.487-0.211c0.025-0.011,0.054-0.022,0.082-0.035c0.009-0.005,0.017-0.009,0.025-0.012l0.334-0.15
			c0.008-0.004,0.123-0.056,0.13-0.06c0.028-0.013,0.078-0.038,0.107-0.051c0.037-0.018,0.165-0.078,0.199-0.094
			c0.017-0.008,0.034-0.017,0.052-0.024c0.05-0.024,0.099-0.048,0.145-0.072c0.008-0.004,0.014-0.007,0.021-0.011
			c2.248-1.123,3.263-3.775,2.344-6.113l-14.682-37.304c3.442-0.164,8.179-0.39,13.401-0.643
			c10.515-0.505,22.997-1.108,30.872-1.503c6.671-0.316,7.418-0.367,7.662-0.385c0.696-0.047,1.338-0.152,1.876-0.282
			c2.593-0.625,3.949-2.02,4.625-3.106c0.801-1.29,0.957-2.545,0.924-3.455C198.852,232.934,197.748,225.107,195.066,217.748z"/>
		<path style="fill:#E2E2E2;" d="M100.49,302.787c-0.002,0.017-0.004,0.032-0.005,0.048c-0.246,1.627-0.323,3.285-0.404,4.936
			c-0.052-1.085-0.129-2.177-0.229-3.261c-0.002-0.021-0.003-0.042-0.006-0.063c-0.109-0.951-0.197-1.907-0.322-2.855
			c0.171-0.003,0.339-0.012,0.51-0.007c0.203,0.005,0.403,0.005,0.604,0.007C100.586,301.991,100.537,302.39,100.49,302.787z
			 M194.566,217.29c-0.229-0.63-0.462-1.253-0.733-1.931c-0.003-0.008-0.034-0.08-0.037-0.09
			c-2.653-7.55-7.638-14.361-13.775-20.637c-0.203-0.207-0.419-0.392-0.646-0.554c-6.898-6.868-14.105-11.439-19.035-14.103
			c-11.383-6.147-15.246-13.494-17.549-22.629c-0.38-1.514-0.906-3.004-1.564-4.439c-0.023-0.059-0.049-0.116-0.075-0.174
			c-0.218-0.472-0.456-0.917-0.692-1.354c-0.201-0.37-0.41-0.727-0.63-1.086l-0.094-0.153c-0.151-0.25-0.305-0.499-0.457-0.729
			c-0.157-0.236-0.318-0.46-0.48-0.685l-0.116-0.158c-0.16-0.224-0.32-0.445-0.493-0.666c-0.194-0.25-0.39-0.489-0.572-0.707
			c-0.183-0.218-0.363-0.428-0.536-0.625c-0.2-0.226-0.399-0.443-0.602-0.657c-0.18-0.189-0.358-0.369-0.552-0.562
			c-0.167-0.166-0.335-0.33-0.51-0.496V90.176c0-0.393-0.047-0.775-0.136-1.141c-2.271-20.652-24.737-71.271-27.244-75.22
			c-0.257-0.406-0.539-0.795-0.851-1.179l-0.157-0.193c-0.291-0.344-0.601-0.667-0.881-0.929c-0.082-0.078-0.163-0.15-0.236-0.214
			c-0.343-0.298-0.667-0.551-0.948-0.744c-0.068-0.046-0.162-0.106-0.245-0.159c-0.293-0.185-0.579-0.345-0.809-0.459
			c-0.092-0.046-0.183-0.095-0.328-0.161c-0.255-0.115-0.508-0.217-0.751-0.3c-0.108-0.038-0.22-0.069-0.328-0.101
			c-0.848-0.242-1.742-0.375-2.543-0.358c-0.064-0.002-0.13-0.002-0.199-0.002c-1.458,0-5.147,0.469-7.901,4.806
			c-2.501,3.938-24.951,54.515-27.235,75.192c-0.092,0.373-0.141,0.761-0.141,1.161v62.266c-0.047,0.097-0.093,0.193-0.139,0.292
			c-0.028,0.061-0.056,0.123-0.083,0.186c-0.634,1.436-1.178,2.914-1.558,4.428c-2.302,9.136-6.166,16.482-17.549,22.63
			c-4.928,2.663-12.137,7.234-19.03,14.1c-0.229,0.163-0.445,0.35-0.648,0.557c-6.157,6.293-10.798,13.256-13.762,20.602
			c-0.017,0.043-0.053,0.126-0.07,0.17c-0.25,0.632-0.494,1.271-0.725,1.911c-0.134,0.368-0.264,0.737-0.4,1.139l-0.048,0.149
			c-2.35,6.982-3.295,14.363-2.815,21.944c-0.033,0.909,0.124,2.164,0.922,3.452c0.675,1.088,2.028,2.488,4.54,3.089
			c0.629,0.151,1.269,0.255,1.962,0.303c0.246,0.017,0.995,0.068,7.659,0.385c7.885,0.396,20.365,0.998,30.874,1.503l8.079,0.388
			l-14.781,37.559c-0.909,2.311,0.09,4.904,2.278,6.08c0.034,0.018,0.156,0.078,0.192,0.097l0.224,0.106l0.003,0.001
			c0.023,0.013,0.047,0.023,0.071,0.034l0.351,0.161c0.021,0.01,0.039,0.018,0.056,0.025c0.46,0.225,1.161,0.508,2.085,0.869
			c0.007,0.002,0.145,0.056,0.149,0.059c0.25,0.096,0.517,0.196,0.79,0.299l0.211,0.078c0.299,0.109,0.612,0.222,0.976,0.349
			c0.011,0.004,0.087,0.031,0.097,0.035c2.52,1.009,5.351,1.704,8.328,2.425c-0.049,0.265-0.094,0.529-0.141,0.791
			c-0.005,0.024-0.021,0.129-0.026,0.152c-0.251,1.35-0.425,2.701-0.576,4.001c-0.001,0.006-0.002,0.013-0.002,0.019
			c-0.062,0.529-0.107,1.069-0.167,1.625c-0.011,0.104-0.021,0.211-0.021,0.229c-0.26,2.855-0.354,5.741-0.286,8.58
			c0.048,1.913,1.243,3.63,3.009,4.369c0,0,0.517,0.254,1.489,0.534c0.019,0.006,0.035,0.011,0.053,0.017
			c2.468,0.79,7.592,2.142,14.233,2.142l0.54-0.003l0.538,0.003c3.078,0,6.177-0.206,9.16-0.862c0.004-0.001,0.148-0.029,0.153-0.03
			c1.153-0.227,2.323-0.319,3.304-0.766c0.002-0.001,0.006-0.004,0.01-0.005c0.008-0.001,0.016-0.004,0.021-0.005
			c0.545-0.166,1.023-0.298,1.485-0.441c0.009-0.002,0.021-0.006,0.033-0.011c0.378-0.142,0.695-0.229,0.933-0.314
			c0.028-0.011,0.094-0.034,0.122-0.046l0.261-0.097c0.003-0.001,0.111-0.042,0.114-0.043c0.029-0.012,0.113-0.044,0.144-0.057
			c1.577-0.635,2.696-2.034,2.979-3.679c0.279,1.624,1.374,3.015,2.926,3.657c0.266,0.11,6.628,2.698,15.794,2.698l0.536-0.003
			l0.537,0.003c3.074,0,6.153-0.288,9.195-0.869l0.143-0.027c1.091-0.212,2.143-0.47,3.177-0.736c0.039-0.01,0.079-0.02,0.117-0.03
			c0.553-0.149,1.032-0.296,1.376-0.406c0.026-0.008,0.119-0.037,0.145-0.045c0.4-0.13,0.727-0.242,0.982-0.334l0.349-0.129
			c0.002-0.001,0.111-0.042,0.113-0.043c0.031-0.012,0.114-0.044,0.143-0.057c1.792-0.745,3.004-2.445,3.05-4.385
			c0.037-1.502,0.027-2.997-0.032-4.567c-0.001-0.024-0.001-0.05-0.002-0.074c-0.053-1.389-0.144-2.781-0.273-4.165
			c-0.171-1.821-0.411-3.654-0.708-5.43c-0.025-0.309-0.078-0.609-0.157-0.898c-0.018-0.097-0.035-0.193-0.054-0.289
			c1.25-0.304,2.467-0.623,3.615-0.949l0.212-0.062c0.528-0.15,1.036-0.301,1.495-0.44l0.234-0.072
			c1.067-0.329,2.019-0.645,2.829-0.929l1.297-0.469c0.033-0.012,0.064-0.023,0.097-0.037l0.992-0.382
			c0.036-0.014,0.073-0.03,0.109-0.045c0.038-0.017,0.075-0.03,0.098-0.039l0.711-0.293c0.035-0.014,0.069-0.027,0.104-0.043
			l0.486-0.211c0.025-0.011,0.055-0.023,0.083-0.035c0.007-0.005,0.018-0.009,0.025-0.013l0.334-0.149
			c0.008-0.003,0.122-0.055,0.13-0.06c0.028-0.014,0.078-0.037,0.107-0.051c0.036-0.017,0.164-0.078,0.199-0.095
			c0.017-0.007,0.034-0.016,0.052-0.024c0.048-0.025,0.098-0.047,0.145-0.072c0.007-0.004,0.015-0.006,0.021-0.009
			c2.247-1.125,3.263-3.777,2.344-6.114l-14.682-37.303c3.443-0.164,8.178-0.392,13.401-0.644
			c10.515-0.506,22.998-1.109,30.871-1.503c6.673-0.316,7.418-0.368,7.662-0.385c0.696-0.048,1.339-0.152,1.877-0.282
			c2.593-0.624,3.949-2.019,4.625-3.107c0.801-1.289,0.957-2.544,0.923-3.454C198.352,232.475,197.248,224.648,194.566,217.29z"/>
		<path style="fill:#D4D4D4;" d="M99.99,302.329c-0.002,0.016-0.004,0.032-0.006,0.047c-0.195,1.635-0.322,3.284-0.403,4.935
			c-0.053-1.085-0.13-2.177-0.23-3.261c-0.001-0.021-0.002-0.041-0.004-0.063c-0.091-0.953-0.197-1.906-0.322-2.855
			c0.169-0.002,0.339-0.015,0.51-0.008c0.202,0.008,0.403,0.006,0.604,0.008C100.086,301.532,100.037,301.932,99.99,302.329z
			 M194.064,216.831c-0.227-0.629-0.462-1.254-0.732-1.93c-0.004-0.009-0.034-0.081-0.038-0.09
			c-2.986-7.423-7.637-14.362-13.775-20.638c-0.202-0.206-0.418-0.39-0.646-0.553c-6.898-6.869-14.105-11.44-19.035-14.104
			c-11.382-6.147-15.246-13.492-17.548-22.629c-0.38-1.513-0.906-3.005-1.564-4.438c-0.023-0.06-0.049-0.116-0.076-0.175
			c-0.22-0.471-0.456-0.917-0.693-1.354c-0.2-0.371-0.41-0.727-0.629-1.087l-0.094-0.153c-0.15-0.25-0.304-0.499-0.456-0.729
			c-0.157-0.235-0.318-0.46-0.481-0.683l-0.115-0.16c-0.16-0.224-0.32-0.445-0.493-0.667c-0.194-0.251-0.39-0.487-0.573-0.706
			c-0.182-0.218-0.362-0.429-0.536-0.625c-0.2-0.226-0.399-0.443-0.603-0.657c-0.18-0.188-0.357-0.369-0.551-0.561
			c-0.168-0.167-0.335-0.331-0.51-0.496V89.717c0-0.393-0.047-0.774-0.138-1.141c-2.27-20.651-24.735-71.271-27.242-75.218
			c-0.259-0.407-0.539-0.796-0.851-1.18l-0.158-0.194c-0.291-0.344-0.6-0.667-0.88-0.928c-0.082-0.078-0.164-0.15-0.237-0.215
			c-0.344-0.296-0.667-0.55-0.948-0.743c-0.068-0.047-0.162-0.107-0.244-0.158c-0.295-0.184-0.58-0.346-0.809-0.461
			c-0.093-0.046-0.183-0.095-0.329-0.16c-0.255-0.116-0.508-0.217-0.75-0.3c-0.108-0.038-0.22-0.069-0.329-0.101
			c-0.85-0.237-1.742-0.375-2.542-0.358c-0.064-0.002-0.131-0.004-0.2-0.004c-1.457,0-5.147,0.469-7.9,4.806
			c-2.501,3.938-24.951,54.515-27.236,75.192c-0.092,0.372-0.14,0.762-0.14,1.161v62.266c-0.048,0.096-0.094,0.193-0.14,0.292
			c-0.028,0.061-0.055,0.123-0.082,0.186c-0.634,1.436-1.178,2.916-1.559,4.427c-2.301,9.139-6.166,16.483-17.548,22.631
			c-4.929,2.664-12.137,7.234-19.032,14.102c-0.227,0.162-0.444,0.348-0.647,0.555c-6.156,6.294-10.738,13.28-13.761,20.603
			c-0.019,0.042-0.054,0.126-0.07,0.168c-0.253,0.632-0.494,1.272-0.726,1.913c-0.133,0.366-0.263,0.736-0.399,1.139l-0.049,0.149
			c-2.349,6.983-3.295,14.362-2.814,21.944c-0.034,0.908,0.122,2.163,0.922,3.452c0.675,1.087,2.028,2.489,4.539,3.089
			c0.628,0.149,1.269,0.255,1.963,0.302c0.245,0.018,0.994,0.068,7.659,0.385c7.885,0.396,20.364,0.999,30.874,1.505l8.078,0.386
			l-14.78,37.559c-0.909,2.311,0.07,4.94,2.277,6.08c0.035,0.019,0.156,0.079,0.192,0.097l0.224,0.107
			c0.002,0,0.003,0.001,0.003,0.001c0.024,0.013,0.048,0.022,0.071,0.034l0.352,0.161c0.021,0.009,0.039,0.017,0.056,0.024
			c0.465,0.214,1.161,0.509,2.085,0.869c0.005,0.002,0.144,0.056,0.149,0.058c0.249,0.098,0.516,0.197,0.79,0.3l0.211,0.077
			c0.298,0.11,0.612,0.223,0.976,0.35c0.01,0.004,0.086,0.03,0.097,0.034c2.557,0.91,5.351,1.705,8.327,2.426
			c-0.048,0.265-0.092,0.53-0.14,0.791c-0.005,0.024-0.022,0.128-0.027,0.153c-0.246,1.35-0.425,2.7-0.575,4.001
			c-0.001,0.006-0.002,0.013-0.002,0.018c-0.062,0.53-0.111,1.068-0.168,1.625c-0.01,0.105-0.021,0.21-0.021,0.23
			c-0.259,2.855-0.354,5.743-0.285,8.581c0.047,1.911,1.242,3.63,3.008,4.368c0,0,0.526,0.225,1.49,0.534
			c0.018,0.005,0.034,0.012,0.052,0.017c2.482,0.747,7.592,2.142,14.234,2.142l0.54-0.003l0.537,0.003
			c3.078,0,6.163-0.276,9.16-0.861c0.005-0.001,0.149-0.03,0.154-0.031c1.152-0.226,2.261-0.493,3.302-0.766
			c0.004-0.001,0.008-0.003,0.012-0.004c0.007-0.001,0.015-0.003,0.021-0.005c0.549-0.154,1.024-0.299,1.484-0.441
			c0.01-0.003,0.022-0.007,0.035-0.012c0.382-0.13,0.695-0.229,0.933-0.314c0.028-0.01,0.094-0.035,0.122-0.045l0.261-0.097
			c0.003-0.001,0.111-0.043,0.114-0.044c0.029-0.011,0.112-0.043,0.143-0.056c1.574-0.645,2.696-2.034,2.98-3.679
			c0.279,1.624,1.373,3.014,2.924,3.656c0.267,0.109,6.629,2.698,15.795,2.698l0.537-0.003l0.537,0.003
			c3.074,0,6.151-0.288,9.194-0.868l0.143-0.027c1.091-0.213,2.143-0.471,3.177-0.736c0.039-0.011,0.078-0.02,0.117-0.03
			c0.554-0.15,1.031-0.297,1.375-0.406c0.027-0.008,0.119-0.036,0.145-0.046c0.399-0.136,0.728-0.24,0.982-0.333l0.348-0.129
			c0.003-0.001,0.111-0.043,0.114-0.044c0.029-0.011,0.113-0.043,0.143-0.056c1.796-0.735,3.003-2.446,3.049-4.385
			c0.037-1.503,0.026-2.997-0.031-4.567c-0.001-0.026-0.002-0.051-0.003-0.075c-0.052-1.389-0.143-2.78-0.272-4.164
			c-0.171-1.822-0.41-3.655-0.709-5.429c-0.023-0.311-0.076-0.61-0.156-0.9c-0.018-0.096-0.035-0.192-0.053-0.288
			c1.249-0.304,2.466-0.623,3.615-0.949l0.212-0.062c0.528-0.15,1.035-0.3,1.494-0.441l0.235-0.07
			c1.066-0.329,2.019-0.645,2.828-0.93l1.296-0.469c0.033-0.012,0.065-0.023,0.099-0.036l0.991-0.383
			c0.036-0.013,0.073-0.029,0.108-0.045c0.04-0.016,0.076-0.03,0.099-0.038l0.712-0.294c0.035-0.014,0.069-0.027,0.104-0.043
			l0.486-0.211c0.025-0.01,0.053-0.022,0.082-0.035c0.008-0.005,0.018-0.009,0.026-0.012l0.334-0.15
			c0.008-0.004,0.121-0.056,0.129-0.06c0.029-0.013,0.079-0.037,0.108-0.051c0.035-0.018,0.163-0.077,0.198-0.094
			c0.017-0.008,0.034-0.017,0.053-0.024c0.049-0.023,0.098-0.048,0.145-0.072c0.007-0.004,0.014-0.007,0.02-0.01
			c2.247-1.124,3.264-3.775,2.344-6.114l-14.681-37.304c3.442-0.164,8.178-0.389,13.401-0.641
			c10.515-0.507,22.996-1.11,30.871-1.505c6.672-0.316,7.418-0.367,7.662-0.385c0.696-0.047,1.339-0.152,1.877-0.282
			c2.592-0.624,3.949-2.02,4.624-3.106c0.802-1.29,0.958-2.545,0.924-3.454C197.851,232.017,196.748,224.189,194.064,216.831z"/>
		<path style="fill:#C5C5C5;" d="M99.49,301.871c-0.002,0.017-0.004,0.031-0.006,0.048c-0.188,1.634-0.323,3.284-0.403,4.935
			c-0.053-1.085-0.13-2.178-0.23-3.261c-0.001-0.021-0.003-0.042-0.005-0.063c-0.09-0.954-0.196-1.907-0.321-2.857
			c0.169-0.002,0.339-0.011,0.51-0.006c0.202,0.005,0.403,0.004,0.604,0.007C99.586,301.075,99.537,301.473,99.49,301.871z
			 M193.564,216.373c-0.227-0.629-0.462-1.253-0.732-1.93c-0.004-0.008-0.034-0.081-0.038-0.09
			c-3.126-7.367-7.637-14.361-13.776-20.637c-0.201-0.207-0.417-0.392-0.645-0.555c-6.898-6.867-14.105-11.438-19.035-14.102
			c-11.382-6.148-15.246-13.493-17.549-22.628c-0.38-1.514-0.905-3.005-1.563-4.439c-0.023-0.059-0.05-0.116-0.077-0.175
			c-0.219-0.47-0.455-0.917-0.692-1.354c-0.2-0.371-0.41-0.727-0.629-1.087l-0.094-0.152c-0.15-0.25-0.304-0.499-0.456-0.729
			c-0.157-0.236-0.318-0.461-0.481-0.685l-0.115-0.158c-0.16-0.224-0.321-0.445-0.493-0.667c-0.194-0.25-0.391-0.488-0.573-0.706
			c-0.183-0.219-0.362-0.429-0.536-0.625c-0.2-0.226-0.399-0.444-0.604-0.657c-0.179-0.188-0.356-0.371-0.55-0.563
			c-0.168-0.166-0.336-0.329-0.51-0.496V89.26c0-0.394-0.048-0.775-0.138-1.141c-2.27-20.652-24.735-71.271-27.242-75.22
			c-0.259-0.406-0.539-0.796-0.851-1.179l-0.158-0.193c-0.291-0.344-0.601-0.666-0.88-0.929c-0.083-0.077-0.164-0.149-0.238-0.214
			c-0.343-0.297-0.666-0.551-0.948-0.744c-0.067-0.046-0.161-0.107-0.243-0.159c-0.295-0.187-0.58-0.345-0.809-0.459
			c-0.093-0.047-0.183-0.096-0.329-0.162c-0.255-0.116-0.508-0.216-0.75-0.299c-0.109-0.038-0.22-0.069-0.33-0.1
			c-0.848-0.241-1.741-0.375-2.541-0.358c-0.064-0.002-0.131-0.003-0.2-0.003c-1.458,0-5.147,0.469-7.901,4.806
			c-2.5,3.938-24.95,54.515-27.235,75.193c-0.092,0.372-0.141,0.761-0.141,1.161v62.266c-0.047,0.096-0.094,0.192-0.139,0.291
			c-0.028,0.061-0.055,0.123-0.083,0.186c-0.633,1.437-1.177,2.915-1.558,4.428c-2.301,9.137-6.166,16.482-17.548,22.63
			c-4.929,2.664-12.137,7.235-19.032,14.101c-0.227,0.163-0.445,0.349-0.647,0.557c-6.156,6.293-10.738,13.279-13.761,20.602
			c-0.019,0.043-0.054,0.126-0.07,0.169c-0.253,0.632-0.494,1.271-0.726,1.912c-0.133,0.367-0.263,0.736-0.4,1.139l-0.048,0.149
			c-2.35,6.982-3.296,14.363-2.814,21.944c-0.034,0.909,0.122,2.163,0.922,3.452c0.675,1.088,2.028,2.488,4.539,3.089
			c0.628,0.151,1.269,0.254,1.963,0.303c0.245,0.017,0.994,0.068,7.658,0.385c7.886,0.395,20.365,0.998,30.875,1.503l8.078,0.388
			l-14.78,37.558c-0.909,2.311,0.07,4.941,2.277,6.081c0.035,0.017,0.156,0.078,0.192,0.096l0.224,0.107
			c0.002,0,0.003,0.001,0.003,0.001c0.024,0.013,0.048,0.022,0.071,0.034l0.352,0.161c0.021,0.009,0.039,0.018,0.055,0.024
			c0.466,0.214,1.162,0.509,2.085,0.87c0.006,0.002,0.145,0.056,0.15,0.058c0.249,0.097,0.515,0.197,0.79,0.299l0.211,0.078
			c0.298,0.109,0.612,0.222,0.976,0.349c0.01,0.004,0.086,0.031,0.097,0.035c2.557,0.91,5.351,1.705,8.327,2.426
			c-0.048,0.265-0.093,0.529-0.14,0.79c-0.005,0.024-0.023,0.129-0.027,0.153c-0.246,1.35-0.425,2.7-0.575,4.001
			c-0.001,0.006-0.002,0.013-0.002,0.018c-0.062,0.53-0.112,1.069-0.168,1.625c-0.011,0.104-0.021,0.211-0.021,0.229
			c-0.259,2.855-0.354,5.742-0.285,8.58c0.046,1.913,1.242,3.631,3.008,4.369c0,0,0.526,0.226,1.489,0.534
			c0.019,0.006,0.035,0.012,0.053,0.017c2.462,0.81,7.592,2.142,14.234,2.142l0.54-0.003l0.537,0.003
			c3.078,0,6.163-0.277,9.16-0.862c0.005-0.001,0.149-0.029,0.154-0.03c1.151-0.227,2.261-0.493,3.302-0.767
			c0.004-0.001,0.008-0.002,0.012-0.004c0.007-0.003,0.014-0.004,0.021-0.005c0.549-0.155,1.024-0.298,1.484-0.441
			c0.01-0.002,0.022-0.007,0.035-0.012c0.377-0.141,0.695-0.228,0.933-0.313c0.028-0.011,0.094-0.035,0.122-0.046l0.26-0.097
			c0.003-0.001,0.112-0.042,0.115-0.044c0.029-0.011,0.112-0.044,0.142-0.056c1.583-0.622,2.697-2.034,2.981-3.679
			c0.279,1.624,1.372,3.015,2.924,3.656c0.267,0.11,6.628,2.699,15.795,2.699l0.537-0.003l0.537,0.003
			c3.074,0,6.151-0.289,9.194-0.869l0.143-0.027c1.092-0.212,2.144-0.47,3.178-0.736c0.039-0.01,0.078-0.02,0.117-0.03
			c0.554-0.15,1.03-0.296,1.375-0.406c0.027-0.008,0.119-0.037,0.145-0.045c0.401-0.13,0.728-0.242,0.982-0.334l0.348-0.129
			c0.003-0.001,0.111-0.042,0.114-0.044c0.029-0.011,0.113-0.044,0.143-0.056c1.806-0.71,3.003-2.445,3.049-4.386
			c0.037-1.502,0.026-2.996-0.031-4.566c-0.001-0.025-0.002-0.05-0.003-0.075c-0.052-1.389-0.143-2.78-0.272-4.164
			c-0.171-1.821-0.41-3.654-0.709-5.43c-0.023-0.309-0.076-0.609-0.156-0.898c-0.018-0.096-0.035-0.192-0.053-0.289
			c1.249-0.304,2.466-0.622,3.614-0.948l0.213-0.061c0.528-0.15,1.035-0.302,1.494-0.441l0.235-0.071
			c1.066-0.329,2.019-0.646,2.828-0.93l1.296-0.469c0.033-0.011,0.065-0.023,0.099-0.036l0.991-0.382
			c0.036-0.015,0.072-0.029,0.108-0.045c0.04-0.017,0.076-0.03,0.099-0.039l0.712-0.293c0.035-0.015,0.068-0.028,0.104-0.043
			l0.487-0.211c0.025-0.011,0.053-0.025,0.081-0.035c0.009-0.005,0.019-0.01,0.027-0.014l0.334-0.149
			c0.008-0.003,0.121-0.055,0.129-0.059c0.029-0.014,0.078-0.038,0.107-0.052c0.036-0.016,0.163-0.078,0.199-0.095
			c0.017-0.007,0.034-0.015,0.052-0.024c0.049-0.023,0.098-0.046,0.146-0.071c0.007-0.005,0.013-0.006,0.02-0.01
			c2.247-1.124,3.264-3.776,2.344-6.114l-14.681-37.303c3.442-0.164,8.178-0.391,13.401-0.643
			c10.515-0.506,22.996-1.109,30.871-1.503c6.672-0.316,7.418-0.368,7.662-0.385c0.696-0.049,1.339-0.152,1.877-0.282
			c2.592-0.624,3.949-2.02,4.624-3.107c0.802-1.289,0.958-2.544,0.924-3.454C197.351,231.559,196.248,223.732,193.564,216.373z"/>
		<path style="fill:#B7B7B7;" d="M98.99,301.413c-0.002,0.016-0.004,0.032-0.006,0.048c-0.188,1.636-0.323,3.283-0.403,4.935
			c-0.053-1.085-0.13-2.178-0.23-3.26c-0.001-0.021-0.003-0.041-0.005-0.063c-0.09-0.954-0.196-1.907-0.322-2.857
			c0.17-0.002,0.34-0.01,0.51-0.006c0.203,0.004,0.404,0.005,0.604,0.008C99.086,300.616,99.036,301.016,98.99,301.413z
			 M193.064,215.915c-0.227-0.629-0.462-1.254-0.732-1.93c-0.004-0.009-0.034-0.081-0.038-0.09
			c-2.986-7.424-7.637-14.362-13.776-20.638c-0.201-0.206-0.418-0.391-0.645-0.554c-6.898-6.868-14.106-11.439-19.035-14.103
			c-11.382-6.147-15.247-13.493-17.549-22.629c-0.38-1.513-0.905-3.005-1.563-4.438c-0.023-0.06-0.05-0.117-0.077-0.175
			c-0.221-0.47-0.455-0.917-0.692-1.354c-0.201-0.371-0.41-0.727-0.629-1.088l-0.094-0.152c-0.15-0.25-0.304-0.499-0.457-0.729
			c-0.158-0.235-0.317-0.46-0.48-0.684l-0.116-0.159c-0.16-0.224-0.32-0.445-0.492-0.667c-0.194-0.25-0.391-0.487-0.573-0.706
			c-0.182-0.218-0.362-0.429-0.536-0.625c-0.201-0.226-0.399-0.443-0.604-0.657c-0.179-0.189-0.356-0.369-0.55-0.561
			c-0.168-0.167-0.336-0.331-0.51-0.496V88.801c0-0.393-0.048-0.773-0.138-1.141c-2.27-20.651-24.735-71.271-27.242-75.219
			c-0.26-0.406-0.539-0.795-0.851-1.179l-0.159-0.194c-0.29-0.344-0.599-0.667-0.879-0.928c-0.083-0.078-0.164-0.15-0.238-0.215
			c-0.343-0.296-0.667-0.55-0.948-0.743c-0.068-0.047-0.162-0.108-0.243-0.159c-0.295-0.186-0.582-0.343-0.809-0.459
			c-0.093-0.046-0.185-0.096-0.329-0.161c-0.255-0.117-0.508-0.218-0.75-0.301c-0.109-0.038-0.22-0.069-0.33-0.101
			c-0.848-0.24-1.742-0.375-2.541-0.358c-0.064-0.002-0.131-0.003-0.2-0.003c-1.458,0-5.147,0.469-7.901,4.806
			c-2.5,3.938-24.95,54.515-27.235,75.192c-0.092,0.372-0.141,0.761-0.141,1.161v62.267c-0.047,0.095-0.094,0.192-0.139,0.29
			c-0.028,0.062-0.056,0.124-0.083,0.187c-0.634,1.436-1.177,2.915-1.559,4.427c-2.3,9.138-6.165,16.483-17.548,22.631
			c-4.928,2.664-12.136,7.234-19.031,14.101c-0.229,0.163-0.445,0.349-0.647,0.556c-6.156,6.294-10.738,13.28-13.762,20.603
			c-0.018,0.042-0.053,0.126-0.069,0.168c-0.253,0.632-0.495,1.272-0.726,1.914c-0.133,0.365-0.263,0.735-0.4,1.138l-0.048,0.148
			c-2.35,6.983-3.296,14.364-2.814,21.944c-0.034,0.909,0.122,2.164,0.922,3.453c0.674,1.087,2.028,2.488,4.539,3.089
			c0.628,0.15,1.269,0.253,1.963,0.302c0.245,0.018,0.993,0.068,7.658,0.385c7.886,0.396,20.364,0.999,30.875,1.504l8.078,0.387
			l-14.78,37.559c-0.909,2.312,0.07,4.94,2.277,6.08c0.035,0.018,0.155,0.079,0.192,0.096l0.224,0.108
			c0.001,0,0.002,0.001,0.002,0.001c0.025,0.012,0.049,0.022,0.072,0.034l0.352,0.162c0.02,0.007,0.039,0.016,0.055,0.023
			c0.466,0.214,1.161,0.509,2.085,0.869c0.006,0.003,0.145,0.056,0.15,0.058c0.249,0.097,0.515,0.197,0.789,0.3l0.212,0.077
			c0.297,0.11,0.611,0.222,0.976,0.351c0.01,0.003,0.086,0.03,0.097,0.033c2.592,0.805,5.35,1.706,8.327,2.427
			c-0.048,0.264-0.091,0.529-0.14,0.791c-0.005,0.023-0.023,0.127-0.028,0.152c-0.245,1.35-0.424,2.699-0.574,4.001
			c-0.001,0.006-0.002,0.013-0.002,0.018c-0.062,0.53-0.112,1.069-0.168,1.625c-0.011,0.105-0.021,0.21-0.021,0.229
			c-0.259,2.855-0.354,5.742-0.285,8.58c0.046,1.912,1.24,3.631,3.007,4.369c0,0,0.527,0.225,1.49,0.534
			c0.019,0.005,0.035,0.011,0.053,0.017c2.461,0.81,7.592,2.142,14.234,2.142l0.54-0.003l0.537,0.003
			c3.078,0,6.153-0.324,9.159-0.861c0.005-0.001,0.15-0.029,0.155-0.03c1.126-0.332,2.261-0.494,3.302-0.767
			c0.004-0.001,0.008-0.002,0.012-0.004c0.007-0.003,0.014-0.004,0.021-0.006c0.549-0.154,1.03-0.276,1.484-0.439
			c0.01-0.004,0.021-0.008,0.035-0.012c0.386-0.117,0.697-0.226,0.932-0.314c0.029-0.01,0.094-0.036,0.123-0.046l0.26-0.097
			c0.003-0.001,0.112-0.043,0.115-0.043c0.029-0.011,0.112-0.045,0.142-0.057c1.583-0.622,2.697-2.035,2.981-3.679
			c0.279,1.623,1.372,3.014,2.924,3.656c0.267,0.109,6.628,2.698,15.794,2.698l0.538-0.003l0.537,0.003
			c3.074,0,6.151-0.289,9.194-0.868l0.143-0.027c1.092-0.212,2.143-0.471,3.178-0.736c0.038-0.011,0.078-0.018,0.117-0.03
			c0.551-0.156,1.03-0.297,1.374-0.405c0.027-0.009,0.12-0.038,0.146-0.047c0.401-0.13,0.728-0.241,0.982-0.333l0.348-0.129
			c0.003-0.001,0.111-0.043,0.114-0.043c0.029-0.011,0.112-0.045,0.142-0.057c1.807-0.711,3.003-2.446,3.05-4.386
			c0.037-1.502,0.026-2.996-0.031-4.566c-0.001-0.026-0.002-0.051-0.003-0.075c-0.052-1.389-0.143-2.78-0.272-4.164
			c-0.171-1.821-0.41-3.654-0.709-5.43c-0.023-0.309-0.076-0.608-0.156-0.899c-0.019-0.096-0.035-0.192-0.053-0.288
			c1.249-0.304,2.466-0.622,3.614-0.949l0.213-0.062c0.528-0.15,1.035-0.301,1.494-0.441l0.235-0.07
			c1.066-0.329,2.019-0.646,2.828-0.93l1.296-0.469c0.033-0.012,0.064-0.023,0.099-0.035l0.991-0.383
			c0.035-0.015,0.072-0.03,0.108-0.045c0.04-0.017,0.075-0.031,0.099-0.038l0.712-0.294c0.034-0.015,0.068-0.028,0.104-0.044
			l0.487-0.211c0.025-0.011,0.053-0.022,0.081-0.035c0.009-0.005,0.019-0.009,0.026-0.011l0.335-0.151
			c0.008-0.004,0.121-0.056,0.128-0.06c0.03-0.013,0.079-0.037,0.108-0.051c0.036-0.018,0.164-0.076,0.199-0.093
			c0.016-0.009,0.034-0.018,0.052-0.025c0.05-0.024,0.098-0.047,0.146-0.072c0.006-0.004,0.013-0.007,0.02-0.011
			c2.246-1.123,3.264-3.775,2.344-6.113l-14.681-37.304c3.442-0.164,8.178-0.39,13.4-0.642c10.515-0.506,22.997-1.109,30.872-1.504
			c6.671-0.316,7.418-0.367,7.662-0.385c0.696-0.049,1.338-0.152,1.877-0.282c2.591-0.624,3.949-2.02,4.624-3.107
			c0.802-1.289,0.958-2.545,0.924-3.455C196.851,231.101,195.748,223.273,193.064,215.915z"/>
		<path style="fill:#A8A8A8;" d="M98.49,300.955c-0.002,0.016-0.004,0.031-0.006,0.047c-0.196,1.634-0.324,3.284-0.403,4.935
			c-0.054-1.085-0.131-2.178-0.231-3.261c0-0.02-0.003-0.042-0.005-0.063c-0.09-0.954-0.197-1.907-0.322-2.856
			c0.17-0.002,0.341-0.011,0.51-0.006c0.204,0.005,0.404,0.005,0.604,0.007C98.585,300.158,98.537,300.557,98.49,300.955z
			 M192.563,215.456c-0.227-0.629-0.46-1.253-0.73-1.93c-0.004-0.008-0.034-0.08-0.038-0.09
			c-2.988-7.425-7.637-14.361-13.777-20.637c-0.201-0.207-0.418-0.392-0.644-0.555c-6.898-6.867-14.107-11.438-19.037-14.102
			c-11.381-6.148-15.246-13.494-17.547-22.629c-0.381-1.514-0.905-3.005-1.563-4.438c-0.025-0.059-0.051-0.116-0.078-0.174
			c-0.224-0.469-0.456-0.917-0.691-1.354c-0.202-0.372-0.411-0.727-0.63-1.088l-0.094-0.152c-0.149-0.25-0.304-0.499-0.457-0.729
			c-0.157-0.236-0.318-0.461-0.48-0.684l-0.116-0.159c-0.159-0.224-0.321-0.445-0.492-0.667c-0.194-0.25-0.391-0.488-0.572-0.706
			c-0.182-0.218-0.363-0.43-0.536-0.625c-0.201-0.227-0.399-0.443-0.604-0.657c-0.179-0.188-0.357-0.37-0.55-0.562
			c-0.168-0.166-0.335-0.33-0.509-0.496V88.343c0-0.394-0.049-0.775-0.139-1.141c-2.27-20.652-24.735-71.271-27.242-75.22
			c-0.259-0.406-0.539-0.795-0.85-1.178l-0.159-0.194c-0.29-0.344-0.599-0.668-0.879-0.929c-0.084-0.077-0.165-0.149-0.239-0.214
			c-0.342-0.297-0.666-0.552-0.947-0.744c-0.068-0.047-0.163-0.107-0.244-0.159c-0.295-0.186-0.581-0.345-0.809-0.459
			c-0.093-0.047-0.185-0.095-0.329-0.161c-0.255-0.116-0.508-0.216-0.75-0.3c-0.108-0.038-0.219-0.069-0.33-0.1
			c-0.848-0.24-1.741-0.375-2.54-0.358c-0.064-0.002-0.132-0.003-0.201-0.003c-1.457,0-5.147,0.469-7.9,4.806
			c-2.501,3.938-24.951,54.516-27.235,75.193c-0.093,0.372-0.142,0.761-0.142,1.161v62.266c-0.046,0.096-0.094,0.193-0.139,0.291
			c-0.029,0.062-0.055,0.124-0.082,0.187c-0.634,1.436-1.179,2.915-1.559,4.427c-2.301,9.137-6.165,16.483-17.549,22.631
			c-4.929,2.664-12.135,7.234-19.031,14.1c-0.228,0.163-0.445,0.349-0.647,0.557c-6.156,6.293-10.671,13.308-13.761,20.602
			c-0.018,0.043-0.053,0.126-0.07,0.169c-0.259,0.629-0.494,1.273-0.725,1.912c-0.133,0.367-0.264,0.736-0.401,1.139l-0.048,0.149
			c-2.35,6.982-3.296,14.363-2.813,21.944c-0.035,0.909,0.121,2.163,0.921,3.452c0.674,1.088,2.027,2.488,4.539,3.089
			c0.628,0.151,1.269,0.255,1.963,0.303c0.246,0.017,0.993,0.068,7.659,0.385c7.885,0.395,20.363,0.998,30.873,1.503l8.079,0.388
			l-14.779,37.558c-0.91,2.311,0.057,4.965,2.276,6.082c0.034,0.017,0.156,0.077,0.191,0.095l0.224,0.107
			c0.002,0,0.004,0.001,0.004,0.001c0.025,0.013,0.048,0.023,0.072,0.035l0.351,0.16c0.021,0.009,0.04,0.018,0.055,0.024
			c0.468,0.209,1.161,0.509,2.086,0.87c0.006,0.002,0.144,0.056,0.149,0.058c0.248,0.097,0.515,0.197,0.79,0.299l0.211,0.078
			c0.297,0.11,0.611,0.222,0.977,0.35c0.009,0.004,0.085,0.03,0.097,0.034c2.566,0.875,5.35,1.705,8.326,2.426
			c-0.048,0.266-0.091,0.529-0.141,0.791c-0.004,0.023-0.023,0.128-0.026,0.152c-0.22,1.354-0.425,2.7-0.576,4.001
			c0,0.006-0.001,0.013-0.001,0.018c-0.062,0.529-0.111,1.068-0.167,1.624c-0.011,0.105-0.023,0.211-0.023,0.23
			c-0.258,2.856-0.354,5.742-0.285,8.58c0.046,1.913,1.241,3.631,3.007,4.369c0,0,0.53,0.218,1.491,0.534
			c0.018,0.006,0.034,0.012,0.051,0.017c2.462,0.81,7.594,2.143,14.236,2.143l0.54-0.004l0.536,0.004
			c3.078,0,6.154-0.326,9.159-0.863c0.006-0.001,0.15-0.029,0.155-0.03c1.151-0.227,2.262-0.493,3.303-0.767
			c0.004-0.001,0.008-0.003,0.011-0.004c0.006-0.002,0.014-0.003,0.021-0.005c0.55-0.155,1.024-0.298,1.484-0.44
			c0.01-0.003,0.022-0.007,0.036-0.012c0.381-0.129,0.696-0.228,0.932-0.314c0.027-0.011,0.093-0.035,0.121-0.045l0.261-0.098
			c0.003-0.001,0.113-0.042,0.115-0.043c0.03-0.012,0.113-0.045,0.142-0.056c1.58-0.632,2.698-2.035,2.982-3.68
			c0.278,1.624,1.371,3.015,2.923,3.656c0.268,0.11,6.629,2.7,15.795,2.7l0.538-0.004l0.536,0.004c3.074,0,6.151-0.29,9.194-0.87
			l0.144-0.026c1.091-0.213,2.144-0.468,3.177-0.737c0.038-0.009,0.078-0.02,0.118-0.03c0.552-0.148,1.03-0.295,1.373-0.406
			c0.027-0.007,0.119-0.037,0.146-0.045c0.401-0.13,0.727-0.242,0.982-0.334l0.347-0.129c0.004-0.001,0.112-0.042,0.115-0.043
			c0.029-0.012,0.112-0.045,0.143-0.056c1.81-0.701,3.003-2.446,3.049-4.387c0.038-1.501,0.054-2.997-0.03-4.565
			c-0.002-0.026-0.003-0.051-0.004-0.076c-0.052-1.389-0.143-2.779-0.272-4.164c-0.171-1.821-0.41-3.654-0.709-5.43
			c-0.023-0.309-0.076-0.608-0.155-0.898c-0.02-0.096-0.036-0.192-0.053-0.288c1.248-0.305,2.464-0.623,3.614-0.948l0.211-0.063
			c0.53-0.15,1.036-0.302,1.496-0.441l0.234-0.07c1.067-0.33,2.019-0.645,2.829-0.93l1.295-0.47c0.033-0.011,0.065-0.023,0.1-0.036
			l0.99-0.382c0.035-0.015,0.072-0.029,0.108-0.045c0.04-0.016,0.076-0.03,0.099-0.039l0.712-0.293
			c0.034-0.014,0.068-0.028,0.104-0.043l0.487-0.21c0.024-0.012,0.053-0.024,0.081-0.036c0.008-0.005,0.018-0.009,0.026-0.013
			l0.334-0.149c0.007-0.004,0.121-0.056,0.129-0.06c0.029-0.014,0.079-0.038,0.107-0.052c0.035-0.016,0.165-0.077,0.199-0.094
			c0.017-0.007,0.034-0.016,0.053-0.024c0.05-0.022,0.097-0.047,0.146-0.072c0.005-0.004,0.012-0.006,0.019-0.01
			c2.247-1.124,3.265-3.776,2.344-6.114l-14.681-37.303c3.442-0.164,8.179-0.391,13.401-0.643
			c10.515-0.506,22.996-1.109,30.872-1.503c6.67-0.316,7.417-0.368,7.661-0.385c0.697-0.048,1.338-0.152,1.877-0.282
			c2.591-0.623,3.948-2.02,4.625-3.107c0.802-1.289,0.957-2.544,0.923-3.454C196.35,230.642,195.247,222.814,192.563,215.456z"/>
		<path style="fill:#9A9A9A;" d="M97.989,300.497c-0.002,0.015-0.004,0.031-0.006,0.046c-0.196,1.635-0.323,3.284-0.403,4.935
			c-0.054-1.084-0.13-2.178-0.23-3.26c-0.001-0.021-0.003-0.041-0.005-0.063c-0.09-0.954-0.197-1.907-0.322-2.857
			c0.17-0.002,0.339-0.012,0.51-0.007c0.203,0.006,0.403,0.006,0.604,0.009C98.085,299.699,98.037,300.099,97.989,300.497z
			 M192.063,214.998c-0.227-0.629-0.461-1.254-0.732-1.93c-0.003-0.009-0.033-0.081-0.037-0.09
			c-2.987-7.424-7.637-14.361-13.776-20.638c-0.202-0.206-0.418-0.391-0.646-0.554c-6.897-6.868-14.105-11.439-19.035-14.102
			c-11.381-6.148-15.246-13.493-17.548-22.629c-0.38-1.513-0.905-3.005-1.563-4.438c-0.023-0.06-0.049-0.117-0.076-0.175
			c-0.221-0.47-0.456-0.917-0.692-1.354c-0.201-0.371-0.41-0.727-0.629-1.088l-0.094-0.152c-0.151-0.25-0.305-0.499-0.457-0.729
			c-0.157-0.234-0.318-0.46-0.481-0.684l-0.115-0.159c-0.16-0.224-0.321-0.445-0.492-0.667c-0.194-0.25-0.392-0.486-0.573-0.704
			c-0.183-0.219-0.363-0.431-0.536-0.626c-0.201-0.227-0.4-0.444-0.604-0.658c-0.179-0.188-0.357-0.369-0.551-0.561
			c-0.167-0.167-0.335-0.331-0.51-0.496V87.885c0-0.394-0.047-0.774-0.137-1.141c-2.271-20.652-24.736-71.271-27.242-75.22
			c-0.259-0.405-0.539-0.795-0.851-1.179l-0.158-0.193c-0.291-0.345-0.6-0.668-0.881-0.929c-0.082-0.078-0.163-0.15-0.237-0.214
			c-0.345-0.296-0.667-0.551-0.948-0.744c-0.068-0.047-0.162-0.108-0.243-0.159c-0.295-0.186-0.582-0.343-0.81-0.459
			c-0.093-0.046-0.184-0.095-0.328-0.161c-0.255-0.117-0.508-0.218-0.75-0.301c-0.109-0.038-0.221-0.069-0.33-0.101
			c-0.848-0.24-1.742-0.375-2.542-0.357c-0.064-0.002-0.13-0.003-0.199-0.003c-1.458,0-5.147,0.469-7.901,4.806
			c-2.501,3.938-24.951,54.515-27.235,75.192c-0.093,0.372-0.141,0.761-0.141,1.162v62.266c-0.047,0.095-0.094,0.192-0.14,0.29
			c-0.028,0.062-0.055,0.124-0.082,0.187c-0.634,1.438-1.178,2.915-1.559,4.427c-2.301,9.138-6.165,16.483-17.548,22.631
			c-4.929,2.664-12.137,7.234-19.031,14.101c-0.229,0.163-0.445,0.349-0.648,0.556c-6.156,6.294-10.768,13.268-13.761,20.603
			c-0.018,0.043-0.053,0.127-0.07,0.168c-0.255,0.631-0.494,1.273-0.726,1.914c-0.132,0.365-0.262,0.735-0.399,1.138l-0.048,0.148
			c-2.35,6.983-3.296,14.364-2.814,21.944c-0.034,0.909,0.122,2.164,0.922,3.453c0.674,1.087,2.027,2.488,4.539,3.089
			c0.628,0.15,1.269,0.255,1.963,0.303c0.245,0.018,0.993,0.067,7.658,0.384c7.885,0.395,20.364,0.999,30.874,1.504l8.078,0.388
			l-14.779,37.558c-0.91,2.311,0.058,4.965,2.276,6.081c0.035,0.017,0.156,0.078,0.192,0.095l0.224,0.108
			c0.002,0,0.003,0.002,0.003,0.002c0.024,0.011,0.049,0.022,0.072,0.033l0.352,0.161c0.02,0.008,0.038,0.018,0.055,0.024
			c0.471,0.202,1.161,0.509,2.085,0.869c0.006,0.002,0.144,0.057,0.15,0.058c0.249,0.097,0.516,0.197,0.79,0.3l0.212,0.078
			c0.297,0.109,0.611,0.222,0.977,0.349c0.009,0.004,0.086,0.03,0.097,0.034c2.557,0.911,5.35,1.705,8.327,2.427
			c-0.049,0.264-0.092,0.529-0.141,0.79c-0.005,0.024-0.023,0.128-0.027,0.153c-0.245,1.35-0.424,2.699-0.575,4.001
			c-0.001,0.006-0.002,0.014-0.002,0.018c-0.062,0.53-0.111,1.069-0.167,1.625c-0.011,0.105-0.023,0.21-0.023,0.229
			c-0.258,2.855-0.354,5.742-0.285,8.58c0.047,1.912,1.242,3.632,3.008,4.369c0,0,0.526,0.225,1.49,0.534
			c0.018,0.005,0.035,0.011,0.052,0.017c2.462,0.81,7.593,2.142,14.234,2.142l0.54-0.003l0.537,0.003
			c3.079,0,6.163-0.276,9.16-0.861c0.005-0.001,0.15-0.029,0.154-0.029c1.127-0.333,2.236-0.912,3.303-0.767
			c0.004,0.001,0.008-0.003,0.011-0.004c0.007-0.002,0.015-0.004,0.022-0.006c0.548-0.154,1.023-0.297,1.484-0.44
			c0.009-0.003,0.021-0.007,0.035-0.012c0.382-0.129,0.697-0.225,0.932-0.313c0.028-0.01,0.094-0.036,0.122-0.046l0.261-0.096
			c0.003-0.002,0.111-0.044,0.114-0.045c0.029-0.011,0.113-0.044,0.143-0.056c1.583-0.622,2.696-2.035,2.98-3.679
			c0.28,1.623,1.373,3.014,2.925,3.656c0.266,0.109,6.628,2.698,15.795,2.698l0.537-0.003l0.537,0.003
			c3.073,0,6.151-0.289,9.193-0.868l0.144-0.027c1.091-0.213,2.143-0.47,3.177-0.736c0.039-0.011,0.079-0.02,0.118-0.03
			c0.553-0.15,1.03-0.297,1.374-0.406c0.027-0.007,0.119-0.036,0.145-0.045c0.404-0.123,0.728-0.242,0.982-0.333l0.348-0.129
			c0.003-0.002,0.112-0.044,0.115-0.045c0.029-0.011,0.112-0.044,0.142-0.056c1.807-0.71,3.003-2.446,3.05-4.386
			c0.036-1.502,0.026-2.995-0.031-4.566c-0.001-0.026-0.002-0.051-0.003-0.075c-0.053-1.389-0.144-2.78-0.273-4.164
			c-0.17-1.821-0.41-3.654-0.708-5.43c-0.023-0.309-0.077-0.609-0.156-0.899c-0.019-0.096-0.035-0.192-0.054-0.288
			c1.25-0.304,2.466-0.622,3.615-0.948l0.212-0.063c0.528-0.149,1.035-0.301,1.495-0.441l0.234-0.07
			c1.067-0.329,2.02-0.646,2.829-0.93l1.296-0.469c0.033-0.011,0.065-0.023,0.099-0.035l0.99-0.384
			c0.036-0.014,0.073-0.029,0.109-0.044c0.04-0.017,0.075-0.03,0.099-0.039l0.711-0.294c0.035-0.014,0.069-0.027,0.105-0.043
			l0.486-0.21c0.026-0.012,0.054-0.023,0.082-0.036c0.009-0.005,0.018-0.009,0.026-0.012l0.334-0.15
			c0.008-0.004,0.122-0.056,0.129-0.06c0.029-0.013,0.079-0.037,0.108-0.051c0.036-0.018,0.164-0.077,0.199-0.094
			c0.016-0.008,0.034-0.017,0.052-0.024c0.049-0.024,0.098-0.048,0.146-0.072c0.007-0.004,0.014-0.007,0.02-0.011
			c2.247-1.123,3.263-3.775,2.344-6.113l-14.681-37.304c3.441-0.164,8.178-0.39,13.4-0.642c10.515-0.506,22.997-1.109,30.871-1.504
			c6.672-0.316,7.418-0.366,7.663-0.384c0.696-0.048,1.337-0.153,1.876-0.283c2.592-0.624,3.949-2.02,4.625-3.106
			c0.801-1.289,0.958-2.545,0.924-3.455C195.849,230.184,194.746,222.357,192.063,214.998z"/>
		<path style="fill:#8B8B8B;" d="M97.488,300.038c-0.002,0.016-0.003,0.031-0.005,0.047c-0.196,1.635-0.323,3.284-0.404,4.937
			c-0.053-1.086-0.129-2.179-0.229-3.261c-0.001-0.021-0.003-0.042-0.005-0.063c-0.067-0.957-0.197-1.908-0.322-2.858
			c0.17-0.002,0.339-0.011,0.51-0.006c0.202,0.005,0.403,0.005,0.604,0.008C97.584,299.241,97.537,299.641,97.488,300.038z
			 M191.563,214.539c-0.227-0.628-0.461-1.253-0.732-1.93c-0.004-0.008-0.034-0.079-0.038-0.09
			c-3.157-7.352-7.637-14.361-13.775-20.636c-0.202-0.208-0.418-0.393-0.646-0.556c-6.897-6.867-14.104-11.438-19.034-14.1
			c-11.381-6.148-15.247-13.495-17.548-22.63c-0.38-1.513-0.906-3.005-1.563-4.438c-0.023-0.06-0.049-0.117-0.076-0.174
			c-0.223-0.47-0.457-0.917-0.692-1.354c-0.202-0.372-0.41-0.726-0.629-1.088l-0.094-0.152c-0.151-0.25-0.305-0.499-0.457-0.729
			c-0.157-0.235-0.318-0.461-0.481-0.684l-0.115-0.159c-0.16-0.224-0.321-0.446-0.492-0.667c-0.194-0.251-0.392-0.487-0.573-0.705
			c-0.184-0.218-0.363-0.43-0.536-0.625c-0.201-0.227-0.4-0.443-0.604-0.658c-0.181-0.189-0.357-0.369-0.551-0.562
			c-0.167-0.166-0.335-0.329-0.51-0.495V87.427c0-0.395-0.047-0.775-0.137-1.141c-2.271-20.652-24.736-71.272-27.243-75.22
			c-0.258-0.406-0.538-0.796-0.851-1.179l-0.158-0.193c-0.29-0.345-0.6-0.668-0.88-0.93c-0.082-0.077-0.164-0.149-0.237-0.213
			c-0.345-0.297-0.667-0.552-0.948-0.745c-0.068-0.046-0.162-0.107-0.243-0.158c-0.295-0.185-0.582-0.344-0.81-0.459
			c-0.093-0.047-0.185-0.096-0.328-0.161c-0.256-0.116-0.508-0.219-0.751-0.301c-0.108-0.037-0.22-0.068-0.329-0.1
			c-0.848-0.241-1.742-0.375-2.542-0.359c-0.064-0.002-0.132-0.003-0.199-0.003c-1.458,0-5.147,0.469-7.901,4.806
			c-2.501,3.939-24.951,54.516-27.236,75.194c-0.092,0.371-0.14,0.76-0.14,1.161v62.266c-0.048,0.095-0.094,0.193-0.14,0.29
			c-0.028,0.062-0.055,0.124-0.082,0.187c-0.634,1.436-1.178,2.915-1.559,4.427c-2.301,9.137-6.166,16.484-17.548,22.632
			c-4.929,2.664-12.137,7.233-19.031,14.099c-0.229,0.163-0.445,0.349-0.648,0.558c-6.156,6.293-10.768,13.267-13.761,20.601
			c-0.018,0.044-0.053,0.127-0.07,0.169c-0.256,0.632-0.494,1.273-0.726,1.913c-0.133,0.366-0.262,0.735-0.399,1.138l-0.049,0.149
			c-2.349,6.982-3.296,14.364-2.813,21.944c-0.034,0.909,0.122,2.163,0.921,3.453c0.675,1.087,2.028,2.487,4.54,3.088
			c0.628,0.151,1.269,0.255,1.962,0.304c0.246,0.017,0.993,0.068,7.659,0.384c7.885,0.395,20.363,0.999,30.874,1.503l8.078,0.389
			l-14.78,37.557c-0.909,2.311,0.053,4.978,2.276,6.082c0.036,0.017,0.157,0.077,0.193,0.095l0.224,0.107
			c0.002,0,0.003,0.002,0.003,0.002c0.024,0.012,0.048,0.023,0.072,0.033l0.352,0.162c0.02,0.008,0.038,0.018,0.055,0.023
			c0.471,0.203,1.161,0.509,2.085,0.871c0.006,0.002,0.143,0.055,0.15,0.057c0.249,0.097,0.515,0.197,0.79,0.3l0.211,0.077
			c0.298,0.11,0.612,0.222,0.977,0.351c0.01,0.004,0.087,0.03,0.097,0.033c2.592,0.804,5.351,1.706,8.328,2.426
			c-0.049,0.265-0.091,0.529-0.141,0.792c-0.005,0.022-0.023,0.127-0.027,0.151c-0.245,1.35-0.426,2.7-0.575,4.001
			c-0.001,0.006-0.002,0.014-0.002,0.02c-0.062,0.528-0.111,1.068-0.167,1.623c-0.011,0.106-0.023,0.211-0.023,0.229
			c-0.259,2.857-0.354,5.742-0.285,8.58c0.047,1.913,1.242,3.632,3.008,4.369c0,0,0.526,0.226,1.49,0.534
			c0.018,0.006,0.035,0.013,0.052,0.019c2.441,0.87,7.593,2.141,14.234,2.141l0.54-0.003l0.537,0.003
			c3.079,0,6.229-0.005,9.16-0.861c0.005-0.002,0.149-0.029,0.154-0.03c1.152-0.228,2.235-0.911,3.303-0.768
			c0.004,0.001,0.007-0.002,0.011-0.003c0.007-0.002,0.015-0.004,0.022-0.006c0.548-0.154,1.023-0.298,1.484-0.44
			c0.009-0.003,0.021-0.007,0.035-0.011c0.385-0.116,0.696-0.226,0.932-0.314c0.028-0.011,0.094-0.036,0.122-0.047l0.261-0.096
			c0.003-0.002,0.111-0.043,0.114-0.043c0.029-0.012,0.113-0.046,0.143-0.057c1.583-0.623,2.696-2.035,2.98-3.68
			c0.279,1.624,1.373,3.015,2.925,3.656c0.266,0.11,6.628,2.699,15.795,2.699l0.536-0.003l0.537,0.003
			c3.074,0,6.152-0.289,9.194-0.869l0.144-0.027c1.091-0.212,2.14-0.483,3.177-0.736c0.039-0.009,0.079-0.018,0.117-0.029
			c0.554-0.15,1.031-0.297,1.375-0.406c0.027-0.007,0.119-0.037,0.145-0.045c0.404-0.123,0.728-0.243,0.982-0.334l0.348-0.129
			c0.003-0.002,0.112-0.043,0.115-0.043c0.029-0.012,0.112-0.046,0.142-0.057c1.807-0.711,3.003-2.445,3.049-4.387
			c0.037-1.501,0.027-2.995-0.031-4.566c-0.001-0.025-0.002-0.05-0.002-0.075c-0.027-1.39-0.144-2.78-0.273-4.164
			c-0.17-1.82-0.41-3.653-0.708-5.43c-0.024-0.308-0.077-0.608-0.156-0.898c-0.019-0.096-0.035-0.192-0.054-0.288
			c1.25-0.304,2.466-0.622,3.615-0.948l0.212-0.063c0.528-0.149,1.035-0.302,1.495-0.441l0.234-0.071
			c1.066-0.328,2.018-0.645,2.829-0.929l1.296-0.47c0.033-0.01,0.065-0.023,0.099-0.034l0.99-0.384
			c0.036-0.015,0.073-0.029,0.109-0.045c0.039-0.016,0.075-0.029,0.099-0.039l0.711-0.292c0.035-0.015,0.069-0.029,0.105-0.044
			l0.486-0.21c0.026-0.012,0.054-0.023,0.081-0.036c0.009-0.004,0.018-0.008,0.027-0.012l0.334-0.15
			c0.008-0.004,0.121-0.056,0.129-0.059c0.029-0.015,0.079-0.038,0.108-0.053c0.036-0.017,0.165-0.075,0.199-0.093
			c0.015-0.007,0.033-0.017,0.052-0.025c0.049-0.023,0.098-0.047,0.146-0.071c0.007-0.003,0.014-0.007,0.02-0.011
			c2.246-1.123,3.263-3.776,2.343-6.114l-14.681-37.303c3.442-0.164,8.178-0.391,13.401-0.643
			c10.515-0.506,22.997-1.108,30.871-1.503c6.672-0.315,7.418-0.367,7.663-0.384c0.696-0.049,1.337-0.153,1.876-0.283
			c2.592-0.624,3.949-2.02,4.625-3.107c0.801-1.29,0.957-2.544,0.923-3.455C195.349,229.725,194.246,221.898,191.563,214.539z"/>
		<path style="fill:#7D7D7D;" d="M96.987,299.58c-0.002,0.016-0.003,0.031-0.005,0.047c-0.188,1.636-0.322,3.284-0.404,4.935
			c-0.052-1.085-0.13-2.178-0.229-3.261c-0.002-0.02-0.003-0.041-0.005-0.063c-0.09-0.953-0.198-1.906-0.323-2.855
			c0.171-0.002,0.339-0.012,0.511-0.007c0.202,0.006,0.403,0.005,0.604,0.008C97.084,298.783,97.035,299.183,96.987,299.58z
			 M191.062,214.082c-0.228-0.628-0.461-1.254-0.732-1.93c-0.003-0.009-0.034-0.081-0.037-0.09
			c-2.654-7.55-7.637-14.362-13.776-20.638c-0.201-0.206-0.417-0.391-0.645-0.554c-6.897-6.869-14.105-11.44-19.035-14.102
			c-11.383-6.148-15.246-13.493-17.548-22.63c-0.381-1.512-0.907-3.004-1.563-4.437c-0.023-0.059-0.05-0.117-0.076-0.175
			c-0.219-0.472-0.456-0.917-0.692-1.354c-0.201-0.372-0.411-0.727-0.631-1.088l-0.094-0.152c-0.15-0.25-0.303-0.5-0.455-0.729
			c-0.156-0.234-0.318-0.459-0.482-0.683l-0.114-0.159c-0.161-0.224-0.321-0.445-0.493-0.667c-0.193-0.25-0.391-0.487-0.572-0.705
			c-0.184-0.22-0.362-0.431-0.537-0.626c-0.2-0.226-0.4-0.443-0.602-0.657c-0.18-0.188-0.358-0.369-0.552-0.562
			c-0.167-0.167-0.335-0.331-0.51-0.495V86.968c0-0.394-0.047-0.774-0.136-1.14c-2.273-20.652-24.737-71.271-27.243-75.221
			c-0.259-0.405-0.539-0.795-0.852-1.178l-0.157-0.194c-0.291-0.345-0.6-0.667-0.88-0.928c-0.083-0.079-0.165-0.151-0.237-0.215
			c-0.343-0.296-0.669-0.549-0.949-0.744c-0.067-0.047-0.161-0.107-0.244-0.159c-0.292-0.186-0.58-0.343-0.81-0.458
			c-0.092-0.047-0.183-0.095-0.328-0.161c-0.254-0.117-0.508-0.217-0.75-0.301c-0.109-0.039-0.219-0.07-0.329-0.101
			c-0.847-0.243-1.742-0.375-2.542-0.357c-0.065-0.002-0.131-0.003-0.201-0.003c-1.457,0-5.146,0.469-7.899,4.805
			c-2.501,3.938-24.951,54.516-27.236,75.193c-0.092,0.371-0.14,0.761-0.14,1.161v62.266c-0.048,0.096-0.094,0.193-0.14,0.291
			c-0.028,0.061-0.055,0.123-0.082,0.186c-0.634,1.438-1.178,2.916-1.559,4.427c-2.302,9.139-6.166,16.484-17.549,22.632
			c-4.929,2.664-12.137,7.233-19.03,14.101c-0.229,0.162-0.445,0.349-0.648,0.556c-6.157,6.294-10.739,13.279-13.762,20.603
			c-0.019,0.042-0.052,0.126-0.07,0.168c-0.259,0.63-0.494,1.273-0.725,1.913c-0.133,0.366-0.263,0.735-0.4,1.139l-0.048,0.148
			c-2.349,6.983-3.295,14.363-2.815,21.944c-0.034,0.908,0.123,2.164,0.922,3.453c0.675,1.087,2.03,2.486,4.54,3.088
			c0.629,0.15,1.27,0.255,1.962,0.303c0.246,0.018,0.995,0.068,7.659,0.385c7.885,0.395,20.365,0.999,30.874,1.504l8.078,0.387
			l-14.78,37.559c-0.909,2.311,0.078,4.928,2.278,6.08c0.034,0.019,0.156,0.079,0.192,0.096l0.223,0.108
			c0.003,0,0.003,0.001,0.005,0.001c0.023,0.012,0.047,0.022,0.071,0.034l0.351,0.161c0.019,0.008,0.039,0.017,0.056,0.024
			c0.464,0.214,1.161,0.509,2.084,0.869c0.005,0.002,0.145,0.057,0.15,0.058c0.249,0.097,0.516,0.196,0.789,0.3l0.211,0.077
			c0.299,0.11,0.612,0.223,0.976,0.35c0.011,0.004,0.087,0.031,0.097,0.034c2.558,0.911,5.352,1.705,8.328,2.427
			c-0.049,0.264-0.093,0.529-0.141,0.791c-0.005,0.023-0.023,0.127-0.027,0.151c-0.275,1.344-0.424,2.7-0.574,4.001
			c-0.002,0.006-0.003,0.014-0.003,0.018c-0.061,0.529-0.108,1.07-0.167,1.625c-0.011,0.105-0.021,0.209-0.021,0.229
			c-0.26,2.855-0.354,5.742-0.285,8.58c0.047,1.912,1.242,3.631,3.008,4.369c0,0,0.523,0.231,1.489,0.534
			c0.019,0.005,0.036,0.011,0.053,0.016c2.481,0.747,7.593,2.142,14.234,2.142l0.539-0.004l0.537,0.004
			c3.079,0,6.269,0.116,9.161-0.861c0.004-0.001,0.148-0.029,0.154-0.03c1.126-0.333,2.255-0.52,3.302-0.767
			c0.004-0.001,0.007-0.004,0.012-0.005c0.007-0.002,0.015-0.003,0.021-0.005c0.549-0.154,1.024-0.298,1.484-0.44
			c0.01-0.003,0.021-0.008,0.034-0.012c0.387-0.117,0.696-0.229,0.934-0.314c0.028-0.01,0.094-0.035,0.122-0.045l0.261-0.097
			c0.003-0.001,0.111-0.043,0.114-0.044c0.028-0.011,0.112-0.044,0.143-0.057c1.578-0.635,2.696-2.034,2.98-3.678
			c0.278,1.623,1.373,3.014,2.925,3.655c0.265,0.11,6.628,2.699,15.794,2.699l0.537-0.004l0.537,0.004
			c3.074,0,6.152-0.289,9.194-0.868l0.143-0.027c1.091-0.213,2.146-0.458,3.178-0.736c0.039-0.011,0.078-0.02,0.116-0.031
			c0.552-0.156,1.032-0.296,1.376-0.405c0.026-0.008,0.119-0.037,0.145-0.046c0.401-0.13,0.728-0.241,0.982-0.333l0.347-0.129
			c0.003-0.001,0.111-0.043,0.114-0.044c0.03-0.011,0.114-0.044,0.143-0.057c1.796-0.735,3.002-2.445,3.049-4.385
			c0.036-1.502-0.003-2.995-0.032-4.566c-0.001-0.026-0.002-0.052-0.003-0.075c-0.081-1.388-0.143-2.78-0.271-4.165
			c-0.172-1.82-0.411-3.654-0.709-5.429c-0.024-0.31-0.077-0.609-0.157-0.899c-0.017-0.096-0.034-0.192-0.053-0.289
			c1.251-0.304,2.467-0.622,3.616-0.948l0.211-0.063c0.528-0.149,1.036-0.3,1.495-0.44l0.234-0.07
			c1.067-0.33,2.019-0.645,2.829-0.93l1.296-0.469c0.032-0.012,0.065-0.024,0.098-0.036l0.992-0.383
			c0.035-0.014,0.073-0.029,0.109-0.044c0.039-0.017,0.075-0.031,0.098-0.039l0.711-0.294c0.036-0.014,0.07-0.027,0.104-0.043
			l0.486-0.211c0.025-0.011,0.054-0.023,0.083-0.036c0.008-0.004,0.018-0.007,0.026-0.011l0.333-0.151
			c0.008-0.003,0.122-0.055,0.13-0.06c0.029-0.013,0.079-0.037,0.107-0.05c0.037-0.017,0.164-0.078,0.199-0.094
			c0.017-0.008,0.034-0.018,0.052-0.025c0.049-0.024,0.099-0.047,0.145-0.071c0.008-0.004,0.014-0.007,0.02-0.011
			c2.248-1.124,3.265-3.775,2.345-6.113l-14.682-37.304c3.443-0.164,8.178-0.39,13.401-0.642
			c10.516-0.506,22.997-1.109,30.871-1.504c6.673-0.316,7.419-0.367,7.663-0.385c0.695-0.048,1.338-0.152,1.876-0.282
			c2.593-0.625,3.949-2.02,4.625-3.106c0.801-1.29,0.957-2.545,0.924-3.455C194.849,229.267,193.73,221.446,191.062,214.082z"/>
		<path style="fill:#6E6E6E;" d="M96.487,299.121c-0.002,0.017-0.004,0.032-0.005,0.048c-0.145,1.64-0.322,3.284-0.404,4.935
			c-0.053-1.086-0.129-2.178-0.23-3.261c-0.001-0.021-0.002-0.042-0.004-0.063c-0.11-0.952-0.197-1.907-0.322-2.857
			c0.169-0.003,0.339-0.011,0.51-0.006c0.202,0.005,0.403,0.005,0.604,0.007C96.583,298.325,96.533,298.724,96.487,299.121z
			 M190.563,213.623c-0.227-0.629-0.463-1.253-0.733-1.93c-0.004-0.008-0.034-0.08-0.037-0.09
			c-2.653-7.55-7.637-14.361-13.776-20.637c-0.202-0.207-0.418-0.392-0.645-0.555c-6.898-6.867-14.106-11.438-19.036-14.102
			c-11.382-6.147-15.245-13.494-17.548-22.629c-0.38-1.513-0.906-3.005-1.563-4.439c-0.025-0.059-0.05-0.116-0.078-0.174
			c-0.221-0.47-0.455-0.916-0.692-1.354c-0.2-0.371-0.409-0.727-0.629-1.088l-0.093-0.152c-0.151-0.25-0.305-0.499-0.456-0.729
			c-0.157-0.236-0.319-0.461-0.481-0.684l-0.116-0.159c-0.16-0.224-0.32-0.445-0.493-0.667c-0.195-0.25-0.39-0.487-0.573-0.706
			c-0.182-0.217-0.361-0.43-0.535-0.625c-0.199-0.227-0.4-0.443-0.604-0.657c-0.178-0.188-0.356-0.37-0.55-0.561
			c-0.168-0.166-0.335-0.33-0.51-0.496V86.51c0-0.394-0.047-0.775-0.138-1.141c-2.271-20.652-24.735-71.271-27.242-75.22
			c-0.258-0.406-0.538-0.795-0.851-1.178l-0.157-0.194c-0.291-0.344-0.601-0.667-0.881-0.929c-0.082-0.077-0.164-0.149-0.237-0.214
			c-0.343-0.297-0.666-0.551-0.948-0.744c-0.068-0.046-0.162-0.107-0.244-0.158c-0.294-0.187-0.58-0.346-0.81-0.46
			c-0.093-0.046-0.182-0.095-0.328-0.161c-0.256-0.116-0.509-0.217-0.75-0.3c-0.109-0.038-0.22-0.069-0.33-0.101
			c-0.849-0.24-1.742-0.375-2.542-0.358c-0.064-0.002-0.13-0.003-0.2-0.003c-1.457,0-5.147,0.469-7.899,4.806
			c-2.501,3.938-24.952,54.516-27.237,75.193c-0.092,0.372-0.14,0.761-0.14,1.161v62.266c-0.048,0.096-0.094,0.193-0.14,0.291
			c-0.028,0.061-0.054,0.124-0.082,0.186c-0.643,1.432-1.178,2.915-1.558,4.427c-2.302,9.137-6.167,16.483-17.549,22.631
			c-4.928,2.664-12.136,7.234-19.032,14.1c-0.228,0.163-0.444,0.349-0.647,0.557c-6.156,6.293-10.797,13.255-13.761,20.602
			c-0.018,0.043-0.054,0.126-0.07,0.169c-0.253,0.632-0.494,1.272-0.726,1.912c-0.133,0.367-0.262,0.736-0.399,1.139l-0.049,0.149
			c-2.349,6.982-3.295,14.363-2.813,21.944c-0.035,0.909,0.122,2.163,0.921,3.452c0.675,1.088,2.028,2.488,4.539,3.089
			c0.628,0.151,1.271,0.255,1.963,0.303c0.246,0.017,0.995,0.068,7.659,0.385c7.885,0.395,20.365,0.998,30.874,1.503l8.079,0.388
			l-14.781,37.558c-0.908,2.311,0.089,4.903,2.278,6.08c0.034,0.018,0.156,0.079,0.191,0.097l0.225,0.107
			c0.002,0,0.003,0.001,0.003,0.001c0.023,0.013,0.047,0.023,0.071,0.034l0.35,0.161c0.021,0.009,0.039,0.017,0.056,0.024
			c0.462,0.22,1.161,0.509,2.085,0.87c0.005,0.002,0.145,0.056,0.149,0.058c0.249,0.096,0.516,0.197,0.79,0.3l0.211,0.077
			c0.298,0.11,0.612,0.222,0.976,0.35c0.01,0.004,0.086,0.03,0.097,0.034c2.557,0.91,5.352,1.705,8.327,2.426
			c-0.048,0.265-0.092,0.529-0.14,0.791c-0.005,0.023-0.023,0.128-0.027,0.151c-0.25,1.35-0.424,2.701-0.575,4.002
			c-0.001,0.006-0.002,0.013-0.002,0.018c-0.061,0.529-0.112,1.068-0.168,1.624c-0.01,0.105-0.021,0.211-0.021,0.229
			c-0.259,2.856-0.354,5.742-0.285,8.58c0.046,1.913,1.243,3.631,3.008,4.369c0,0,0.526,0.226,1.49,0.534
			c0.018,0.006,0.034,0.012,0.052,0.017c2.463,0.81,7.593,2.142,14.234,2.142l0.54-0.003l0.538,0.003
			c3.077,0,6.267,0.116,9.16-0.862c0.004-0.001,0.148-0.029,0.153-0.03c1.151-0.227,2.256-0.519,3.302-0.767
			c0.005-0.001,0.008-0.003,0.012-0.004c0.007-0.001,0.015-0.004,0.021-0.005c0.559-0.117,1.024-0.298,1.484-0.441
			c0.01-0.003,0.022-0.007,0.035-0.012c0.382-0.13,0.696-0.228,0.934-0.314c0.027-0.011,0.094-0.035,0.121-0.046l0.261-0.097
			c0.003-0.001,0.111-0.042,0.114-0.043c0.029-0.012,0.112-0.045,0.142-0.057c1.576-0.645,2.697-2.034,2.981-3.68
			c0.279,1.625,1.373,3.016,2.924,3.657c0.267,0.11,6.629,2.699,15.796,2.699l0.536-0.003l0.538,0.003
			c3.074,0,6.15-0.289,9.193-0.869l0.143-0.027c1.092-0.212,2.145-0.467,3.179-0.736c0.038-0.009,0.077-0.02,0.116-0.03
			c0.554-0.15,1.031-0.296,1.375-0.406c0.027-0.007,0.119-0.037,0.146-0.046c0.399-0.136,0.729-0.241,0.982-0.334l0.349-0.128
			c0.002-0.001,0.11-0.042,0.113-0.043c0.029-0.012,0.113-0.045,0.143-0.057c1.796-0.735,3.003-2.445,3.049-4.386
			c0.037-1.501-0.002-2.995-0.031-4.566c0-0.025-0.001-0.051-0.002-0.075c-0.053-1.389-0.144-2.779-0.273-4.165
			c-0.171-1.82-0.41-3.653-0.709-5.43c-0.023-0.308-0.076-0.607-0.156-0.897c-0.017-0.096-0.035-0.192-0.053-0.288
			c1.249-0.304,2.466-0.623,3.614-0.95l0.213-0.062c0.528-0.149,1.035-0.301,1.494-0.44l0.235-0.071
			c1.066-0.328,2.019-0.646,2.828-0.929l1.296-0.47c0.034-0.011,0.066-0.023,0.099-0.035l0.991-0.383
			c0.036-0.015,0.073-0.029,0.108-0.045c0.04-0.016,0.077-0.03,0.099-0.039l0.712-0.293c0.035-0.014,0.07-0.028,0.104-0.043
			l0.487-0.212c0.025-0.011,0.053-0.022,0.082-0.034c0.008-0.005,0.018-0.009,0.026-0.013l0.334-0.149
			c0.008-0.004,0.121-0.056,0.13-0.06c0.028-0.015,0.077-0.037,0.107-0.052c0.035-0.017,0.164-0.077,0.198-0.094
			c0.018-0.007,0.034-0.016,0.053-0.024c0.049-0.023,0.097-0.047,0.145-0.072c0.008-0.003,0.014-0.006,0.02-0.01
			c2.248-1.124,3.264-3.776,2.344-6.114l-14.681-37.303c3.442-0.164,8.178-0.391,13.401-0.643
			c10.515-0.506,22.996-1.109,30.871-1.503c6.672-0.316,7.419-0.368,7.662-0.385c0.696-0.048,1.339-0.152,1.877-0.282
			c2.593-0.625,3.949-2.02,4.624-3.107c0.802-1.289,0.958-2.544,0.925-3.454C194.348,228.809,193.245,220.982,190.563,213.623z"/>
		<path style="fill:#606060;" d="M95.987,298.663c-0.002,0.017-0.004,0.032-0.006,0.048c-0.188,1.635-0.323,3.284-0.403,4.935
			c-0.053-1.084-0.13-2.178-0.23-3.261c-0.001-0.021-0.003-0.041-0.005-0.063c-0.09-0.953-0.196-1.906-0.321-2.855
			c0.169-0.002,0.339-0.004,0.509-0.007c0.203,0.003,0.404,0.006,0.605,0.008C96.083,297.866,96.034,298.266,95.987,298.663z
			 M190.062,213.165c-0.228-0.629-0.462-1.254-0.732-1.93c-0.004-0.009-0.034-0.081-0.038-0.09
			c-3.002-7.418-7.637-14.361-13.776-20.638c-0.201-0.206-0.417-0.391-0.645-0.554c-6.898-6.868-14.106-11.439-19.035-14.103
			c-11.382-6.147-15.247-13.493-17.549-22.629c-0.38-1.513-0.905-3.005-1.563-4.438c-0.023-0.059-0.05-0.117-0.077-0.175
			c-0.219-0.471-0.455-0.917-0.692-1.354c-0.2-0.371-0.41-0.727-0.629-1.087l-0.094-0.153c-0.15-0.25-0.304-0.499-0.456-0.729
			c-0.157-0.235-0.318-0.46-0.481-0.684l-0.116-0.159c-0.159-0.224-0.32-0.445-0.492-0.667c-0.195-0.25-0.391-0.487-0.573-0.705
			c-0.182-0.219-0.361-0.431-0.536-0.626c-0.199-0.226-0.399-0.443-0.604-0.657c-0.179-0.189-0.356-0.369-0.55-0.561
			c-0.168-0.167-0.336-0.331-0.51-0.496V86.051c0-0.393-0.048-0.774-0.138-1.14c-2.271-20.652-24.735-71.271-27.242-75.22
			c-0.259-0.406-0.539-0.795-0.851-1.179l-0.158-0.194c-0.291-0.344-0.599-0.668-0.88-0.928c-0.083-0.078-0.163-0.151-0.238-0.215
			c-0.34-0.3-0.665-0.553-0.948-0.743c-0.066-0.048-0.161-0.108-0.243-0.159c-0.294-0.187-0.58-0.347-0.81-0.459
			c-0.092-0.048-0.184-0.094-0.329-0.161c-0.256-0.115-0.508-0.217-0.75-0.301c-0.109-0.038-0.219-0.071-0.33-0.101
			c-0.843-0.255-1.741-0.375-2.541-0.358c-0.064-0.002-0.131-0.003-0.2-0.003c-1.458,0-5.147,0.469-7.901,4.806
			c-2.5,3.939-24.95,54.515-27.235,75.192c-0.092,0.372-0.141,0.761-0.141,1.161v62.267c-0.047,0.095-0.094,0.192-0.139,0.29
			c-0.028,0.062-0.056,0.124-0.083,0.187c-0.653,1.427-1.177,2.915-1.558,4.427c-2.301,9.138-6.166,16.483-17.548,22.631
			c-4.929,2.664-12.137,7.234-19.032,14.101c-0.229,0.163-0.445,0.349-0.647,0.556c-6.156,6.294-10.798,13.256-13.761,20.603
			c-0.018,0.042-0.054,0.126-0.07,0.168c-0.253,0.632-0.495,1.272-0.726,1.913c-0.133,0.366-0.263,0.736-0.4,1.139l-0.048,0.148
			c-2.35,6.983-3.296,14.363-2.814,21.944c-0.034,0.909,0.122,2.164,0.922,3.453c0.675,1.087,2.023,2.509,4.539,3.089
			c0.627,0.155,1.269,0.255,1.963,0.302c0.245,0.018,0.994,0.068,7.658,0.385c7.886,0.396,20.364,0.999,30.875,1.504l8.078,0.387
			l-14.78,37.559c-0.909,2.312,0.073,4.936,2.277,6.08c0.035,0.018,0.156,0.079,0.192,0.096l0.224,0.108
			c0.002,0,0.003,0.001,0.003,0.001c0.024,0.012,0.048,0.022,0.071,0.034l0.351,0.161c0.02,0.008,0.039,0.017,0.055,0.024
			c0.468,0.21,1.162,0.509,2.085,0.869c0.006,0.002,0.145,0.057,0.15,0.059c0.249,0.096,0.515,0.196,0.79,0.299l0.211,0.078
			c0.297,0.109,0.612,0.222,0.976,0.35c0.01,0.003,0.086,0.03,0.097,0.033c2.563,0.893,5.35,1.705,8.327,2.427
			c-0.048,0.264-0.096,0.528-0.14,0.791c-0.005,0.023-0.023,0.127-0.028,0.152c-0.23,1.353-0.424,2.699-0.574,4.001
			c-0.001,0.006-0.002,0.013-0.002,0.018c-0.061,0.53-0.116,1.069-0.168,1.625c-0.012,0.105-0.021,0.21-0.021,0.229
			c-0.259,2.855-0.354,5.742-0.285,8.58c0.046,1.912,1.241,3.631,3.008,4.369c0,0,0.527,0.221,1.489,0.534
			c0.018,0.006,0.035,0.011,0.053,0.017c2.465,0.801,7.592,2.142,14.234,2.142l0.54-0.003l0.537,0.003
			c3.078,0,6.16-0.289,9.16-0.861c0.005-0.001,0.149-0.029,0.154-0.03c1.152-0.223,2.264-0.481,3.302-0.767
			c0.004-0.001,0.008-0.003,0.012-0.004c0.007-0.002,0.014-0.004,0.021-0.006c0.55-0.151,1.025-0.294,1.484-0.44
			c0.01-0.003,0.021-0.007,0.035-0.012c0.384-0.123,0.695-0.229,0.933-0.314c0.028-0.01,0.094-0.034,0.122-0.045l0.26-0.097
			c0.003-0.001,0.112-0.043,0.115-0.044c0.029-0.011,0.112-0.044,0.142-0.056c1.58-0.631,2.697-2.034,2.981-3.679
			c0.279,1.623,1.372,3.014,2.924,3.656c0.267,0.109,6.628,2.698,15.795,2.698l0.537-0.003l0.537,0.003
			c3.074,0,6.151-0.289,9.194-0.868l0.143-0.027c1.092-0.213,2.146-0.457,3.178-0.736c0.038-0.01,0.078-0.02,0.117-0.03
			c0.552-0.152,1.03-0.297,1.374-0.406c0.028-0.008,0.12-0.037,0.146-0.046c0.401-0.13,0.728-0.241,0.982-0.333l0.348-0.129
			c0.003-0.001,0.111-0.043,0.114-0.044c0.029-0.011,0.113-0.044,0.143-0.056c1.802-0.72,3.002-2.445,3.049-4.386
			c0.037-1.501,0.026-2.996-0.031-4.566c-0.001-0.026-0.002-0.051-0.003-0.075c-0.052-1.389-0.143-2.78-0.272-4.164
			c-0.171-1.821-0.41-3.654-0.709-5.43c-0.023-0.309-0.076-0.609-0.156-0.899c-0.018-0.096-0.035-0.192-0.053-0.288
			c1.249-0.304,2.466-0.623,3.614-0.949l0.213-0.062c0.528-0.15,1.035-0.301,1.494-0.441l0.235-0.07
			c1.066-0.329,2.019-0.646,2.828-0.93l1.296-0.469c0.033-0.012,0.065-0.023,0.099-0.036l0.991-0.383
			c0.036-0.014,0.072-0.029,0.108-0.044c0.04-0.017,0.076-0.03,0.099-0.039l0.712-0.294c0.034-0.013,0.068-0.027,0.104-0.043
			l0.487-0.211c0.025-0.011,0.053-0.022,0.081-0.035c0.009-0.005,0.019-0.008,0.026-0.012l0.335-0.15
			c0.008-0.003,0.121-0.056,0.129-0.06c0.029-0.013,0.078-0.037,0.107-0.051c0.036-0.017,0.164-0.077,0.199-0.094
			c0.017-0.008,0.034-0.017,0.052-0.024c0.05-0.024,0.098-0.048,0.146-0.072c0.007-0.004,0.013-0.007,0.02-0.011
			c2.247-1.123,3.264-3.775,2.344-6.113l-14.681-37.304c3.442-0.164,8.178-0.39,13.4-0.642c10.515-0.506,22.997-1.109,30.872-1.504
			c6.671-0.316,7.418-0.367,7.662-0.385c0.696-0.047,1.34-0.146,1.877-0.282c2.598-0.597,3.949-2.02,4.624-3.107
			c0.802-1.289,0.958-2.545,0.924-3.455C193.848,228.351,192.745,220.523,190.062,213.165z"/>
	</g>
	<path style="fill:#FFFFFF;" d="M190.062,213.165c-0.228-0.629-0.462-1.254-0.732-1.93c-0.004-0.009-0.034-0.081-0.038-0.09
		c-3.002-7.418-7.637-14.361-13.776-20.638c-0.201-0.206-0.417-0.391-0.645-0.554c-6.898-6.868-14.106-11.439-19.035-14.103
		c-11.382-6.147-15.247-13.493-17.549-22.629c-0.38-1.513-0.905-3.005-1.563-4.438c-0.023-0.059-0.05-0.117-0.077-0.175
		c-0.219-0.471-0.455-0.917-0.692-1.354c-0.2-0.371-0.41-0.727-0.629-1.087l-0.094-0.153c-0.15-0.25-0.304-0.499-0.456-0.729
		c-0.157-0.235-0.318-0.46-0.481-0.684l-0.116-0.159c-0.159-0.224-0.32-0.445-0.492-0.667c-0.195-0.25-0.391-0.487-0.573-0.705
		c-0.182-0.219-0.361-0.431-0.536-0.626c-0.199-0.226-0.399-0.443-0.604-0.657c-0.179-0.189-0.356-0.369-0.55-0.561
		c-0.168-0.167-0.336-0.331-0.51-0.496V86.051c0-0.393-0.048-0.774-0.138-1.14c-2.271-20.652-24.735-71.271-27.242-75.22
		c-0.259-0.406-0.539-0.795-0.851-1.179l-0.158-0.194c-0.291-0.344-0.599-0.668-0.88-0.928c-0.083-0.078-0.163-0.151-0.238-0.215
		c-0.34-0.3-0.665-0.553-0.948-0.743c-0.066-0.048-0.161-0.108-0.243-0.159c-0.294-0.187-0.58-0.347-0.81-0.459
		c-0.092-0.048-0.184-0.094-0.329-0.161c-0.256-0.115-0.508-0.217-0.75-0.301c-0.109-0.038-0.219-0.071-0.33-0.101
		c-0.843-0.255-1.741-0.375-2.541-0.358c-0.064-0.002-0.131-0.003-0.2-0.003c-1.458,0-5.147,0.469-7.901,4.806
		c-2.5,3.939-24.95,54.515-27.235,75.192c-0.092,0.372-0.141,0.761-0.141,1.161v62.267c-0.047,0.095-0.094,0.192-0.139,0.29
		c-0.028,0.062-0.056,0.124-0.083,0.187c-0.653,1.427-1.177,2.915-1.558,4.427c-2.301,9.138-6.166,16.483-17.548,22.631
		c-4.929,2.664-12.137,7.234-19.032,14.101c-0.229,0.163-0.445,0.349-0.647,0.556c-6.156,6.294-10.798,13.256-13.761,20.603
		c-0.018,0.042-0.054,0.126-0.07,0.168c-0.253,0.632-0.495,1.272-0.726,1.913c-0.133,0.366-0.263,0.736-0.4,1.139l-0.048,0.148
		c-2.35,6.983-3.296,14.363-2.814,21.944c-0.034,0.909,0.122,2.164,0.922,3.453c0.675,1.087,2.023,2.509,4.539,3.089
		c0.627,0.155,1.269,0.255,1.963,0.302c0.245,0.018,0.994,0.068,7.658,0.385c7.886,0.396,20.364,0.999,30.875,1.504l8.078,0.387
		l-14.78,37.559c-0.909,2.312,0.073,4.936,2.277,6.08c0.035,0.018,0.156,0.079,0.192,0.096l0.224,0.108
		c0.002,0,0.003,0.001,0.003,0.001c0.024,0.012,0.048,0.022,0.071,0.034l0.351,0.161c0.02,0.008,0.039,0.017,0.055,0.024
		c0.468,0.21,1.162,0.509,2.085,0.869c0.006,0.002,0.145,0.057,0.15,0.059c0.249,0.096,0.515,0.196,0.79,0.299l0.211,0.078
		c0.297,0.109,0.612,0.222,0.976,0.35c0.01,0.003,0.086,0.03,0.097,0.033c2.563,0.893,5.35,1.705,8.327,2.427
		c-0.048,0.264-0.096,0.528-0.14,0.791c-0.005,0.023-0.023,0.127-0.028,0.152c-0.23,1.353-0.424,2.699-0.574,4.001
		c-0.001,0.006-0.002,0.013-0.002,0.018c-0.061,0.53-0.116,1.069-0.168,1.625c-0.012,0.105-0.021,0.21-0.021,0.229
		c-0.259,2.855-0.354,5.742-0.285,8.58c0.046,1.912,1.241,3.631,3.008,4.369c0,0,0.527,0.221,1.489,0.534
		c0.018,0.006,0.035,0.011,0.053,0.017c2.465,0.801,7.592,2.142,14.234,2.142l0.54-0.003l0.537,0.003c3.078,0,6.16-0.289,9.16-0.861
		c0.005-0.001,0.149-0.029,0.154-0.03c1.152-0.223,2.264-0.481,3.302-0.767c0.004-0.001,0.008-0.003,0.012-0.004
		c0.007-0.002,0.014-0.004,0.021-0.006c0.55-0.151,1.025-0.294,1.484-0.44c0.01-0.003,0.021-0.007,0.035-0.012
		c0.384-0.123,0.695-0.229,0.933-0.314c0.028-0.01,0.094-0.034,0.122-0.045l0.26-0.097c0.003-0.001,0.112-0.043,0.115-0.044
		c0.029-0.011,0.112-0.044,0.142-0.056c1.58-0.631,2.697-2.034,2.981-3.679c0.279,1.623,1.372,3.014,2.924,3.656
		c0.267,0.109,6.628,2.698,15.795,2.698l0.537-0.003l0.537,0.003c3.074,0,6.151-0.289,9.194-0.868l0.143-0.027
		c1.092-0.213,2.146-0.457,3.178-0.736c0.038-0.01,0.078-0.02,0.117-0.03c0.552-0.152,1.03-0.297,1.374-0.406
		c0.028-0.008,0.12-0.037,0.146-0.046c0.401-0.13,0.728-0.241,0.982-0.333l0.348-0.129c0.003-0.001,0.111-0.043,0.114-0.044
		c0.029-0.011,0.113-0.044,0.143-0.056c1.802-0.72,3.002-2.445,3.049-4.386c0.037-1.501,0.026-2.996-0.031-4.566
		c-0.001-0.026-0.002-0.051-0.003-0.075c-0.052-1.389-0.143-2.78-0.272-4.164c-0.171-1.821-0.41-3.654-0.709-5.43
		c-0.023-0.309-0.076-0.609-0.156-0.899c-0.018-0.096-0.035-0.192-0.053-0.288c1.249-0.304,2.466-0.623,3.614-0.949l0.213-0.062
		c0.528-0.15,1.035-0.301,1.494-0.441l0.235-0.07c1.066-0.329,2.019-0.646,2.828-0.93l1.296-0.469
		c0.033-0.012,0.065-0.023,0.099-0.036l0.991-0.383c0.036-0.014,0.072-0.029,0.108-0.044c0.04-0.017,0.076-0.03,0.099-0.039
		l0.712-0.294c0.034-0.013,0.068-0.027,0.104-0.043l0.487-0.211c0.025-0.011,0.053-0.022,0.081-0.035
		c0.009-0.005,0.019-0.008,0.026-0.012l0.335-0.15c0.008-0.003,0.121-0.056,0.129-0.06c0.029-0.013,0.078-0.037,0.107-0.051
		c0.036-0.017,0.164-0.077,0.199-0.094c0.017-0.008,0.034-0.017,0.052-0.024c0.05-0.024,0.098-0.048,0.146-0.072
		c0.007-0.004,0.013-0.007,0.02-0.011c2.247-1.123,3.264-3.775,2.344-6.113l-14.681-37.304c3.442-0.164,8.178-0.39,13.4-0.642
		c10.515-0.506,22.997-1.109,30.872-1.504c6.671-0.316,7.418-0.367,7.662-0.385c0.696-0.047,1.34-0.146,1.877-0.282
		c2.598-0.597,3.949-2.02,4.624-3.107c0.802-1.289,0.958-2.545,0.924-3.455C193.848,228.351,192.745,220.523,190.062,213.165z
		 M95.987,298.663c-0.002,0.017-0.004,0.032-0.006,0.048c-0.188,1.635-0.323,3.284-0.403,4.935c-0.053-1.084-0.13-2.178-0.23-3.261
		c-0.001-0.021-0.003-0.041-0.005-0.063c-0.09-0.953-0.196-1.906-0.321-2.855c0.169-0.002,0.339-0.004,0.509-0.007
		c0.203,0.003,0.404,0.006,0.605,0.008C96.083,297.866,96.034,298.266,95.987,298.663z"/>
	<g>
		<g>
			<g>
				<path style="fill:#AAACAE;" d="M121.847,140.375c0,0,9.121,3.639,11.736,14.03c2.617,10.391,7.347,18.908,19.947,25.714
					c12.599,6.807,37.128,24.92,34.941,56.337c0,0,0.41,1.72-2.796,1.948c-3.208,0.229-57.572,2.817-57.572,2.817h-9.006
					L121.847,140.375z"/>
				<path style="fill:#97999C;" d="M172.048,193.899c1.392,1.793,2.608,3.66,3.864,5.521c1.972,2.918,3.82,5.865,5.186,8.978
					c2.903,6.608,4.818,13.693,5.011,20.664c0.059,2.065,0.43,4.766-1.563,6.463c-2.193,1.867-5.55,2.677-8.662,3.316
					c-0.142,0.029-0.286,0.059-0.43,0.088c5.431-0.256,9.332-0.446,10.123-0.5c3.206-0.223,2.804-1.943,2.804-1.943
					C189.773,217.677,181.56,203.623,172.048,193.899z"/>
				<path style="fill:#E2E3E4;" d="M121.376,155.186c0,0,7.558,3.014,9.726,11.626c2.168,8.61,6.087,15.669,16.527,21.308
					c10.441,5.64,30.766,20.65,28.955,46.683c0,0,0.341,1.424-2.315,1.615c-2.659,0.189-47.707,2.335-47.707,2.335h-7.464
					L121.376,155.186z"/>
				<path style="fill:#FFFFFF;" d="M146.177,176.588c-0.597-0.425-1.163-0.874-1.707-1.335c1.741,2.951,5.497,5.29,9.049,7.353
					c1.206,0.64,2.456,1.281,3.753,1.933c13.119,6.59,17.793,15.083,18.571,16.919C170.572,189.029,156.771,184.163,146.177,176.588
					z"/>
				<path style="fill:#C6C8C9;" d="M142.644,238.643c-2-0.686-3.776-1.648-4.688-3.15c-0.292-0.483-0.516-0.977-0.689-1.479
					c-2.805-4.396-2.679-10.303-2.733-15.908c-0.218-22.404-0.275-45.082-2.282-67.445c-3.521-7.535-10.404-10.285-10.404-10.285
					l-2.749,100.847h9.006c0,0,8.534-0.405,19.041-0.911C145.598,239.89,144.092,239.352,142.644,238.643z"/>
			</g>
			<path style="fill:#7A7D7F;" d="M129.109,164.824c0,0.381-0.308,0.688-0.688,0.688c-0.381,0-0.689-0.308-0.689-0.688
				c0-0.38,0.308-0.688,0.689-0.688C128.802,164.137,129.109,164.444,129.109,164.824z"/>
			<path style="fill:#7A7D7F;" d="M133.121,175.942c0,0.38-0.308,0.689-0.688,0.689c-0.381,0-0.688-0.309-0.688-0.689
				s0.308-0.689,0.688-0.689C132.814,175.253,133.121,175.563,133.121,175.942z"/>
			<path style="fill:#7A7D7F;" d="M140.412,184.676c0,0.381-0.308,0.689-0.688,0.689c-0.381,0-0.689-0.308-0.689-0.689
				c0-0.38,0.308-0.688,0.689-0.688C140.105,183.988,140.412,184.296,140.412,184.676z"/>
			<path style="fill:#7A7D7F;" d="M150.821,190.799c0,0.38-0.309,0.689-0.688,0.689c-0.38,0-0.689-0.309-0.689-0.689
				c0-0.38,0.309-0.688,0.689-0.688C150.513,190.11,150.821,190.419,150.821,190.799z"/>
			<path style="fill:#7A7D7F;" d="M159.744,197.625c0,0.381-0.308,0.689-0.688,0.689c-0.381,0-0.689-0.308-0.689-0.689
				c0-0.38,0.309-0.688,0.689-0.688C159.437,196.938,159.744,197.245,159.744,197.625z"/>
			<path style="fill:#7A7D7F;" d="M167.122,205.521c0,0.381-0.309,0.689-0.689,0.689c-0.38,0-0.688-0.308-0.688-0.689
				c0-0.38,0.309-0.688,0.688-0.688C166.814,204.834,167.122,205.142,167.122,205.521z"/>
			<path style="fill:#7A7D7F;" d="M172.736,215.726c0,0.381-0.308,0.688-0.688,0.688c-0.381,0-0.689-0.308-0.689-0.688
				c0-0.38,0.308-0.689,0.689-0.689C172.429,215.037,172.736,215.346,172.736,215.726z"/>
			<path style="fill:#7A7D7F;" d="M175.843,234.246c0,0.381-0.308,0.689-0.688,0.689c-0.381,0-0.689-0.308-0.689-0.689
				c0-0.38,0.308-0.688,0.689-0.688C175.535,233.559,175.843,233.866,175.843,234.246z"/>
			<path style="fill:#7A7D7F;" d="M175.423,225.621c0,0.381-0.308,0.689-0.688,0.689c-0.381,0-0.688-0.308-0.688-0.689
				c0-0.38,0.308-0.688,0.688-0.688C175.115,224.934,175.423,225.241,175.423,225.621z"/>
		</g>
		<g>
			<g>
				<path style="fill:#AAACAE;" d="M74.639,140.375c0,0-9.121,3.639-11.737,14.03c-2.616,10.391-7.346,18.908-19.946,25.714
					c-12.599,6.807-37.127,24.92-34.94,56.337c0,0-0.411,1.72,2.797,1.948c3.206,0.229,57.57,2.817,57.57,2.817h9.005
					L74.639,140.375z"/>
				<path style="fill:#97999C;" d="M24.438,193.899c-1.392,1.793-2.607,3.66-3.864,5.521c-1.972,2.918-3.82,5.865-5.186,8.978
					c-2.902,6.608-4.818,13.693-5.012,20.664c-0.057,2.065-0.43,4.766,1.564,6.463c2.193,1.867,5.55,2.677,8.662,3.316
					c0.142,0.029,0.286,0.059,0.43,0.088c-5.431-0.256-9.331-0.446-10.123-0.5c-3.207-0.223-2.804-1.943-2.804-1.943
					C6.713,217.677,14.926,203.623,24.438,193.899z"/>
				<path style="fill:#E2E3E4;" d="M75.109,155.186c0,0-7.557,3.014-9.726,11.626c-2.168,8.61-6.086,15.669-16.528,21.308
					c-10.441,5.64-30.765,20.65-28.954,46.683c0,0-0.34,1.424,2.315,1.615c2.659,0.189,47.707,2.335,47.707,2.335h7.463
					L75.109,155.186z"/>
				<path style="fill:#FFFFFF;" d="M50.309,176.588c0.597-0.425,1.163-0.874,1.708-1.335c-1.742,2.951-5.498,5.29-9.05,7.353
					c-1.206,0.64-2.455,1.281-3.753,1.933c-13.119,6.59-17.793,15.083-18.571,16.919C25.913,189.029,39.714,184.163,50.309,176.588z
					"/>
				<path style="fill:#C6C8C9;" d="M53.842,238.643c2-0.686,3.776-1.648,4.687-3.15c0.294-0.483,0.517-0.977,0.69-1.479
					c2.806-4.396,2.679-10.303,2.733-15.908c0.218-22.404,0.275-45.082,2.281-67.445c3.521-7.535,10.405-10.285,10.405-10.285
					l2.748,100.847h-9.005c0,0-8.534-0.405-19.041-0.911C50.888,239.89,52.395,239.352,53.842,238.643z"/>
			</g>
			<path style="fill:#7A7D7F;" d="M67.376,164.824c0,0.381,0.308,0.688,0.688,0.688c0.381,0,0.689-0.308,0.689-0.688
				c0-0.38-0.309-0.688-0.689-0.688C67.684,164.137,67.376,164.444,67.376,164.824z"/>
			<path style="fill:#7A7D7F;" d="M63.364,175.942c0,0.38,0.308,0.689,0.688,0.689c0.381,0,0.689-0.309,0.689-0.689
				s-0.309-0.689-0.689-0.689C63.672,175.253,63.364,175.563,63.364,175.942z"/>
			<path style="fill:#7A7D7F;" d="M56.073,184.676c0,0.381,0.308,0.689,0.688,0.689c0.381,0,0.688-0.308,0.688-0.689
				c0-0.38-0.308-0.688-0.688-0.688C56.381,183.988,56.073,184.296,56.073,184.676z"/>
			<path style="fill:#7A7D7F;" d="M45.665,190.799c0,0.38,0.307,0.689,0.688,0.689c0.381,0,0.688-0.309,0.688-0.689
				c0-0.38-0.307-0.688-0.688-0.688C45.972,190.11,45.665,190.419,45.665,190.799z"/>
			<path style="fill:#7A7D7F;" d="M36.741,197.625c0,0.381,0.309,0.689,0.688,0.689c0.38,0,0.688-0.308,0.688-0.689
				c0-0.38-0.309-0.688-0.688-0.688C37.05,196.938,36.741,197.245,36.741,197.625z"/>
			<path style="fill:#7A7D7F;" d="M29.364,205.521c0,0.381,0.307,0.689,0.688,0.689s0.688-0.308,0.688-0.689
				c0-0.38-0.307-0.688-0.688-0.688S29.364,205.142,29.364,205.521z"/>
			<path style="fill:#7A7D7F;" d="M23.749,215.726c0,0.381,0.308,0.688,0.688,0.688c0.381,0,0.688-0.308,0.688-0.688
				c0-0.38-0.308-0.689-0.688-0.689C24.057,215.037,23.749,215.346,23.749,215.726z"/>
			<path style="fill:#7A7D7F;" d="M20.643,234.246c0,0.381,0.308,0.689,0.689,0.689c0.38,0,0.688-0.308,0.688-0.689
				c0-0.38-0.309-0.688-0.688-0.688C20.95,233.559,20.643,233.866,20.643,234.246z"/>
			<path style="fill:#7A7D7F;" d="M21.063,225.621c0,0.381,0.308,0.689,0.688,0.689c0.381,0,0.688-0.308,0.688-0.689
				c0-0.38-0.308-0.688-0.688-0.688C21.37,224.934,21.063,225.241,21.063,225.621z"/>
		</g>
		<g>
			<rect x="64.828" y="86.051" style="fill:#E2E3E4;" width="61.234" height="156.841"/>
			<path style="fill:#AAACAE;" d="M99.443,12.297c-1.544-2.431-3.291-2.597-3.999-2.549c-0.705-0.048-2.453,0.118-3.996,2.549
				c-1.987,3.13-25.241,55.188-26.62,74.293h28.607h4.02h28.607C124.684,67.484,101.43,15.427,99.443,12.297z"/>
			<path style="fill:#AAACAE;" d="M114.032,86.59h12.03c-1.379-19.105-24.633-71.163-26.619-74.293
				c-0.915-1.44-1.899-2.082-2.699-2.359C98.335,13.886,111.184,72.975,114.032,86.59z"/>
			<path style="opacity:0.5;fill:#AAACAE;" d="M87.403,55.558c0.992-7.735,2.126-15.447,3.26-23.162
				c0.621-4.224,1.313-8.447,1.824-12.686c0.213-1.769,0.688-3.528,0.861-5.284c-0.062-0.379-0.094-0.586-0.094-0.586
				S75.333,55.592,69.359,79.505c0,0-1.838,5.124,3.217,4.934h11.115C85.027,74.826,86.167,65.185,87.403,55.558z"/>
			<path style="fill:#EFEFF0;" d="M100.033,88.838H73.265c0,0-4.327-0.604-4.23,5.469V232.07c0,0-0.26,5.008,4.896,6.588
				l22.793,0.791c0,0,6.642,0,6.642-6.033c0-3.984,0-140.361,0-140.361S103.364,88.822,100.033,88.838z"/>
			<rect x="64.828" y="119.395" style="fill:#8F9193;" width="61.234" height="2.68"/>
			<rect x="64.828" y="216.806" style="fill:#8F9193;" width="61.234" height="3.075"/>
			<rect x="64.828" y="224.934" style="fill:#8F9193;" width="61.234" height="3.074"/>
			<rect x="113.2" y="86.051" style="fill:#E2E3E4;" width="12.862" height="156.841"/>
			<g>
				<rect x="119.098" y="236.398" style="fill:#8F9193;" width="3.055" height="3.052"/>
				<rect x="115.112" y="236.398" style="fill:#8F9193;" width="3.055" height="3.052"/>
				<rect x="111.127" y="236.398" style="fill:#8F9193;" width="3.056" height="3.052"/>
				<rect x="107.143" y="236.398" style="fill:#8F9193;" width="3.054" height="3.052"/>
			</g>
			<g>
				<g>
					<linearGradient id="SVGID_1_" gradientUnits="userSpaceOnUse" x1="109.6658" y1="262.8288" x2="116.9847" y2="323.8839">
						<stop  offset="0.4575" style="stop-color:#E5E0DF"/>
						<stop  offset="1" style="stop-color:#8CA99C"/>
					</linearGradient>
					<path style="fill:url(#SVGID_1_);" d="M120.074,272.806h-10.476c0,0-9.769,14.403-9.239,36.192c0,0,5.874,2.432,14.477,2.327
						c8.603,0.104,14.478-2.327,14.478-2.327C129.842,287.209,120.074,272.806,120.074,272.806z"/>
					<g>
						
							<linearGradient id="SVGID_00000011736065889709284550000012223742411811550863_" gradientUnits="userSpaceOnUse" x1="112.346" y1="262.5085" x2="119.6644" y2="323.5592">
							<stop  offset="0.4575" style="stop-color:#E5E0DF"/>
							<stop  offset="1" style="stop-color:#8CA99C"/>
						</linearGradient>
						<path style="fill:url(#SVGID_00000011736065889709284550000012223742411811550863_);" d="M124.923,282.814
							c-2.387-6.374-4.849-10.008-4.849-10.008h-10.476c0,0-2.521,3.725-4.934,10.24
							C109.117,283.866,116.081,284.422,124.923,282.814z"/>
						<path style="fill:#657483;" d="M100.386,304.789c-0.023,0.592-0.033,1.192-0.039,1.799c2.398,0.73,6.98,1.793,13.371,1.793
							c4.391,0,9.641-0.513,15.604-1.969c-0.008-0.591-0.02-1.176-0.041-1.754C114.34,308.381,103.862,305.888,100.386,304.789z"/>
						<path style="fill:#657483;" d="M100.805,299.221c-0.065,0.577-0.126,1.162-0.179,1.753c2.465,0.726,6.934,1.71,13.092,1.71
							c4.32,0,9.467-0.493,15.311-1.895c-0.054-0.579-0.114-1.151-0.182-1.717C114.69,302.506,104.613,300.357,100.805,299.221z"/>
						<path style="fill:#657483;" d="M127.122,289.825c-0.145-0.564-0.292-1.12-0.446-1.659c-10.955,2.293-19.24,1.251-23.739,0.22
							c-0.154,0.548-0.303,1.111-0.448,1.686c2.604,0.611,6.398,1.22,11.229,1.22C117.561,291.292,122.063,290.896,127.122,289.825z
							"/>
						<path style="fill:#657483;" d="M101.658,293.766c-0.11,0.563-0.217,1.132-0.314,1.714c2.571,0.693,6.774,1.509,12.374,1.509
							c4.136,0,9.034-0.452,14.574-1.721c-0.101-0.572-0.206-1.137-0.315-1.69C115.217,296.501,105.889,294.898,101.658,293.766z"/>
						<path style="fill:#657483;" d="M125.509,284.452c-0.193-0.563-0.39-1.112-0.586-1.639c-8.842,1.608-15.806,1.053-20.258,0.232
							c-0.198,0.536-0.395,1.093-0.591,1.668c2.476,0.479,5.714,0.883,9.643,0.883C117.147,285.597,121.104,285.28,125.509,284.452z
							"/>
					</g>
					<path style="opacity:0.6;fill:#B3B5B8;" d="M120.074,272.806h-10.476c0,0-9.769,14.403-9.239,36.192c0,0,0.427,0.175,1.2,0.425
						c-0.294-5.05,0.995-10.211,1.823-15.136c0.548-3.253,2.073-11.002,6.906-10.662c5.35,0.377,4.223,22.536,4.381,27.699
						c0.057-0.001,0.11,0.002,0.166,0.001c8.603,0.104,14.478-2.327,14.478-2.327C129.842,287.209,120.074,272.806,120.074,272.806z
						"/>
					<path style="opacity:0.6;fill:#B3B5B8;" d="M120.074,272.806h-5.373c5.527,11.564,7.668,24.999,8.253,37.869
						c3.962-0.689,6.359-1.677,6.359-1.677C129.842,287.209,120.074,272.806,120.074,272.806z"/>
				</g>
				<g>
					
						<linearGradient id="SVGID_00000009582003871628903480000003215942468268600454_" gradientUnits="userSpaceOnUse" x1="71.1524" y1="262.8288" x2="78.4713" y2="323.8839">
						<stop  offset="0.4575" style="stop-color:#E5E0DF"/>
						<stop  offset="1" style="stop-color:#8CA99C"/>
					</linearGradient>
					<path style="fill:url(#SVGID_00000009582003871628903480000003215942468268600454_);" d="M81.563,272.806H71.085
						c0,0-9.768,14.403-9.239,36.192c0,0,5.874,2.432,14.477,2.327c8.603,0.104,14.478-2.327,14.478-2.327
						C91.329,287.209,81.563,272.806,81.563,272.806z"/>
					<g>
						
							<linearGradient id="SVGID_00000079470889517031778880000015168069004169941902_" gradientUnits="userSpaceOnUse" x1="73.8323" y1="262.5085" x2="81.1507" y2="323.5594">
							<stop  offset="0.4575" style="stop-color:#E5E0DF"/>
							<stop  offset="1" style="stop-color:#8CA99C"/>
						</linearGradient>
						<path style="fill:url(#SVGID_00000079470889517031778880000015168069004169941902_);" d="M86.409,282.814
							c-2.386-6.374-4.847-10.008-4.847-10.008H71.085c0,0-2.521,3.725-4.934,10.24C70.604,283.866,77.568,284.422,86.409,282.814z"
							/>
						<path style="fill:#657483;" d="M61.872,304.789c-0.022,0.592-0.034,1.192-0.038,1.799c2.398,0.73,6.98,1.793,13.37,1.793
							c4.392,0,9.641-0.513,15.604-1.969c-0.007-0.591-0.02-1.176-0.041-1.754C75.826,308.381,65.349,305.888,61.872,304.789z"/>
						<path style="fill:#657483;" d="M62.292,299.221c-0.066,0.577-0.126,1.162-0.18,1.753c2.466,0.726,6.934,1.71,13.092,1.71
							c4.319,0,9.467-0.493,15.311-1.895c-0.054-0.579-0.113-1.151-0.181-1.717C76.176,302.506,66.101,300.357,62.292,299.221z"/>
						<path style="fill:#657483;" d="M88.609,289.825c-0.146-0.564-0.294-1.12-0.446-1.659c-10.956,2.293-19.24,1.251-23.739,0.22
							c-0.154,0.548-0.305,1.111-0.449,1.686c2.604,0.611,6.398,1.22,11.229,1.22C79.047,291.292,83.55,290.896,88.609,289.825z"/>
						<path style="fill:#657483;" d="M63.144,293.766c-0.109,0.563-0.215,1.132-0.314,1.714c2.573,0.693,6.775,1.509,12.375,1.509
							c4.138,0,9.035-0.452,14.574-1.721c-0.101-0.572-0.205-1.137-0.315-1.69C76.703,296.501,67.376,294.898,63.144,293.766z"/>
						<path style="fill:#657483;" d="M86.996,284.452c-0.194-0.563-0.391-1.112-0.587-1.639c-8.841,1.608-15.805,1.053-20.258,0.232
							c-0.198,0.536-0.396,1.093-0.591,1.668c2.477,0.479,5.715,0.883,9.644,0.883C78.635,285.597,82.59,285.28,86.996,284.452z"/>
					</g>
					<path style="opacity:0.6;fill:#B3B5B8;" d="M81.563,272.806H71.085c0,0-9.768,14.403-9.239,36.192c0,0,0.429,0.175,1.199,0.425
						c-0.293-5.05,0.997-10.211,1.824-15.136c0.549-3.253,2.074-11.002,6.907-10.662c5.349,0.377,4.222,22.536,4.381,27.699
						c0.057-0.001,0.11,0.002,0.165,0.001c8.603,0.104,14.478-2.327,14.478-2.327C91.329,287.209,81.563,272.806,81.563,272.806z"/>
					<path style="opacity:0.6;fill:#B3B5B8;" d="M81.563,272.806h-5.374c5.525,11.564,7.668,24.999,8.252,37.869
						c3.963-0.689,6.359-1.677,6.359-1.677C91.329,287.209,81.563,272.806,81.563,272.806z"/>
				</g>
				<g>
					<path style="fill:#FFFFFF;" d="M129.733,248.262l-3.024-7.685c-25.148,4.066-47.28,2.274-62.27-0.218l-3.014,7.656
						C76.919,250.862,101.568,253.293,129.733,248.262z"/>
					<path style="fill:#E6E7E8;" d="M132.623,255.605l-2.89-7.343c-28.165,5.031-52.814,2.601-68.308-0.246l-2.719,6.909
						C74.416,258.165,101.502,261.486,132.623,255.605z"/>
					<path style="fill:#E6E7E8;" d="M49.376,278.632l-2.457,6.245c0,0,15.986,8.19,48.612,7.733
						c32.626,0.457,48.612-7.733,48.612-7.733l-2.121-5.39C99.265,289.968,62.46,282.19,49.376,278.632z"/>
					<path style="fill:#FFFFFF;" d="M58.707,254.925l-2.973,7.554c15.561,3.5,45.432,7.844,79.881,0.728l-2.992-7.602
						C101.502,261.486,74.416,258.165,58.707,254.925z"/>
					<path style="fill:#FFFFFF;" d="M52.302,271.201l-2.926,7.431c13.084,3.558,49.889,11.336,92.647,0.855l-2.95-7.493
						C100.411,280.777,67.019,274.86,52.302,271.201z"/>
					<path style="fill:#E6E7E8;" d="M55.734,262.478l-3.433,8.723c14.717,3.659,48.109,9.576,86.77,0.793l-3.457-8.788
						C101.166,270.322,71.296,265.978,55.734,262.478z"/>
				</g>
				<path style="fill:#E2E3E4;" d="M58.136,268.928c3.396-9.314,6.461-18.752,10.059-27.988c-1.291-0.188-2.554-0.381-3.755-0.58
					l-3.014,7.656l-2.719,6.909l-2.973,7.554l-3.433,8.723l-2.926,7.431l-2.457,6.245c0,0,1.52,0.776,4.565,1.837
					C53.65,280.767,55.969,274.87,58.136,268.928z"/>
				<path style="fill:#E2E3E4;" d="M116.071,272.75c1.684,6.109,3.482,12.19,5.364,18.242c15.206-2.274,22.708-6.115,22.708-6.115
					l-2.121-5.39l-2.95-7.493l-3.457-8.788l-2.992-7.602l-2.89-7.343l-3.024-7.685c-6.84,1.106-13.451,1.773-19.76,2.116
					C110.027,252.701,113.29,262.655,116.071,272.75z"/>
				<path style="fill:#E2E3E4;" d="M131.589,267.591c2.553,5.405,5.034,10.806,7.735,16.141c0.439,0.865,0.873,1.735,1.3,2.607
					c2.348-0.862,3.52-1.462,3.52-1.462l-2.121-5.39l-2.95-7.493l-3.457-8.788l-2.992-7.602l-2.89-7.343l-3.024-7.685
					c-2.294,0.37-4.551,0.675-6.789,0.952C122.975,250.524,127.537,259.01,131.589,267.591z"/>
			</g>
			<path style="opacity:0.5;fill:#EFEFF0;" d="M83.438,88.838H73.265c0,0-4.327-0.604-4.23,5.469V232.07c0,0-0.26,5.008,4.896,6.588
				l9.508,0.331V88.838z"/>
			<path style="fill:#303134;" d="M121.004,206.232c0,3.997-3.24,7.236-7.235,7.236h-1.135c-3.997,0-7.236-3.239-7.236-7.236v-3.459
				c0-3.996,3.239-7.235,7.236-7.235h1.135c3.995,0,7.235,3.239,7.235,7.235V206.232z"/>
			<path style="fill:#303134;" d="M119.474,206.226c0,3.214-2.604,5.818-5.818,5.818h-0.912c-3.213,0-5.818-2.605-5.818-5.818
				v-2.782c0-3.214,2.605-5.818,5.818-5.818h0.912c3.215,0,5.818,2.605,5.818,5.818V206.226z"/>
		</g>
	</g>
</g>
</svg>
